<?xml version="1.0" encoding="UTF-8"?>
<svg version="1.1" xmlns="http://www.w3.org/2000/svg" width="2000" height="2000">
<path d="M0 0 C660 0 1320 0 2000 0 C2000 660 2000 1320 2000 2000 C1340 2000 680 2000 0 2000 C0 1340 0 680 0 0 Z " fill="#1B4721" transform="translate(0,0)"/>
<path d="M0 0 C2 1.875 2 1.875 3 4 C3 4.66 3 5.32 3 6 C4.1446875 5.2265625 4.1446875 5.2265625 5.3125 4.4375 C6.199375 3.963125 7.08625 3.48875 8 3 C8.99 3.33 9.98 3.66 11 4 C9.35211268 8.69014085 9.35211268 8.69014085 7.4375 10.375 C5.18589594 12.92029154 5.31030744 15.71074113 5 19 C5.99 19 6.98 19 8 19 C10.03299461 24.14228049 10.02584663 26.9224601 8.3125 32.0625 C6.43017665 34.84116781 3.77760826 36.16796051 1 38 C0.67 38.99 0.34 39.98 0 41 C-0.66 41 -1.32 41 -2 41 C-1.55966008 42.98020421 -1.55966008 42.98020421 0 45 C2.04740861 45.86408305 4.08030431 46.50489377 6.22265625 47.09375 C8 48 8 48 8.74609375 50.09375 C8.82988281 50.7228125 8.91367187 51.351875 9 52 C10.03125 52.103125 11.0625 52.20625 12.125 52.3125 C16 53 16 53 18.6875 54.5625 C22.20958078 56.09095015 24.035994 56.10994891 27.8125 56 C33.53379776 55.85873339 37.76957469 56.77048418 43 59 C43.81984375 59.33644531 44.6396875 59.67289062 45.484375 60.01953125 C51.6341759 62.6341759 51.6341759 62.6341759 54 65 C54.268125 65.94875 54.53625 66.8975 54.8125 67.875 C56.26133116 71.68771357 57.62845788 72.753849 61 75 C64.22205218 75.93726324 64.22205218 75.93726324 67.6875 76.4375 C74.91290628 77.82495997 81.23216781 80.03854098 87.0625 84.62109375 C90.16397997 86.82839704 92.30434878 86.57346312 96 86 C98.59020597 84.38251086 100.4240455 82.62258078 102 80 C101.98082606 77.04650188 101.98082606 77.04650188 101 74 C100.53014619 69.9624427 100.49977148 66.84654058 102.625 63.25 C109.24601115 56.97746312 114.40144255 55.71830532 123.2265625 55.765625 C127.04011813 56.08789731 129.64218226 57.20916387 133 59 C133 60.32 133 61.64 133 63 C134.08539062 63.26554687 135.17078125 63.53109375 136.2890625 63.8046875 C137.73440647 64.16133082 139.17971722 64.5181088 140.625 64.875 C141.33785156 65.04902344 142.05070312 65.22304688 142.78515625 65.40234375 C146.91973128 66.42650454 151.02649743 67.44727746 155 69 C155.33 69.66 155.66 70.32 156 71 C156.99515625 70.979375 157.9903125 70.95875 159.015625 70.9375 C169.11089263 70.99867602 177.04185497 73.06211312 186.22167969 77.29296875 C192.41683396 80.10943206 192.41683396 80.10943206 199 79 C200.24489161 78.1837877 201.47834717 77.35000135 202.703125 76.50390625 C207.54889102 73.30528572 212.05665246 73.08563914 217.75 72.9375 C219.14798828 72.84952148 219.14798828 72.84952148 220.57421875 72.75976562 C227.42418198 72.48950165 227.42418198 72.48950165 230.23828125 74.984375 C230.81964844 75.64953125 231.40101563 76.3146875 232 77 C235.10228732 77.52071688 235.10228732 77.52071688 238.4375 77.3125 C239.54996094 77.28800781 240.66242187 77.26351562 241.80859375 77.23828125 C244.63196531 77.02747872 247.23651333 76.58272822 250 76 C251.21327677 79.1782723 252.39077085 82.36870111 253.5625 85.5625 C253.90474609 86.45775391 254.24699219 87.35300781 254.59960938 88.27539062 C257.39029537 95.97091866 257.14263359 100.42070722 254 108 C253.26934209 110.6542267 252.6357788 113.32064647 252 116 C248 116 248 116 246.18359375 114.75 C242.42919331 110.98720045 240.19808012 107.86157248 238.6171875 102.77734375 C238.04422522 100.82790994 238.04422522 100.82790994 236.375 98.875 C234.53214013 96.36200927 234.34696101 94.05325688 234 91 C233.34 91 232.68 91 232 91 C234.75554475 103.38080177 234.75554475 103.38080177 241.72265625 113.609375 C243.90453585 115.98475462 244.25763689 118.92449569 245 122 C247.1941493 127.73579246 250.06909246 133.20003358 252.8125 138.6875 C253.15571289 139.37465088 253.49892578 140.06180176 253.85253906 140.76977539 C255.53703494 144.12897356 257.24265444 147.47331815 259.00390625 150.79296875 C264.17276055 160.64750761 264.17276055 160.64750761 264.6875 166.1875 C265.45893962 171.84782206 269.53092443 174.57086179 273.67211914 178.01611328 C278.15945379 181.83503416 279.37281075 184.25076518 280 190 C280.66 190.66 281.32 191.32 282 192 C282.23950195 194.38256836 282.23950195 194.38256836 282.23828125 197.33984375 C282.25439453 198.40267578 282.27050781 199.46550781 282.28710938 200.56054688 C282.30400666 202.80788522 282.30925612 205.05534197 282.30273438 207.30273438 C282.32271484 208.36685547 282.34269531 209.43097656 282.36328125 210.52734375 C282.36775269 211.99288696 282.36775269 211.99288696 282.37231445 213.48803711 C282.7708911 216.22508249 282.7708911 216.22508249 285.39526367 217.74438477 C286.25482666 218.15873779 287.11438965 218.57309082 288 219 C290.3125 220.5625 290.3125 220.5625 292 222 C292 222.66 292 223.32 292 224 C292.99 224 293.98 224 295 224 C298.73864969 230.31702879 300.02420362 236.44666572 301.19140625 243.609375 C301.98234963 246.92598782 302.84874753 248.44948461 305 251 C305 251.66 305 252.32 305 253 C305.66 253 306.32 253 307 253 C307.33 253.99 307.66 254.98 308 256 C308.33 255.34 308.66 254.68 309 254 C309.99 254.33 310.98 254.66 312 255 C312 256.32 312 257.64 312 259 C312.99 259.0928125 312.99 259.0928125 314 259.1875 C320.53509545 260.95742168 324.9829662 264.64395494 329 270 C329.99 270.33 330.98 270.66 332 271 C332.33 271.66 332.66 272.32 333 273 C336.84697871 272.44851004 339.15576412 271.45124208 342.25 269.125 C371.59423477 247.93673637 406.73063893 227.53587346 444 228 C442.80399861 191.46009549 439.19925507 153.51344281 414 125 C410.32897212 125.6432876 407.82946936 127.25805401 404.75 129.3125 C387.83014662 140.2134332 369.69364413 142.26221866 350.01953125 138.671875 C332.42569537 134.75707581 316.66652617 125.5489981 303 114 C301.8505737 113.05300504 300.70082421 112.10640224 299.55078125 111.16015625 C292.81089908 105.55101464 286.45732321 99.65672438 280.34960938 93.36401367 C278.05632612 91.00731653 275.7776896 88.82357794 273.19921875 86.77734375 C271 85 271 85 269.875 82.5625 C270.02973399 79.39045325 271.17095189 78.47373126 273.40820312 76.34936523 C276.34952407 73.85600927 279.55927003 71.80982288 282.8125 69.75 C283.93192993 69.03602051 283.93192993 69.03602051 285.07397461 68.30761719 C308.7998673 53.31547338 336.97904705 37.79024073 366.06640625 42.49609375 C368.78131314 43.19556758 371.36899298 44.03231795 374 45 C374.98613281 45.35191406 375.97226563 45.70382812 376.98828125 46.06640625 C393.32515031 52.35620463 404.68956259 63.21025855 412 79 C415.7468692 87.66295833 417.18482057 95.52503982 417.25 104.9375 C417.29641576 111.15824927 417.29641576 111.15824927 419.734375 116.74609375 C421.98195279 118.91099956 421.98195279 118.91099956 424.46484375 120.8671875 C438.40515989 132.59509599 444.50225571 152.99106994 448.49511719 169.99755859 C449.18103814 172.71802456 450.06403394 175.35652829 451 178 C451.42410156 176.90042969 451.84820313 175.80085937 452.28515625 174.66796875 C455.41729171 166.7155696 458.60847277 159.35441442 463.51953125 152.296875 C466.51773845 147.64530288 467.6330427 142.64498095 468.875 137.3125 C472.60371476 122.10299668 479.36311262 107.93525057 492.9296875 99.08984375 C506.14390984 91.22269671 520.85898821 88.11282373 536.12109375 91.87109375 C548.86870705 95.91690234 559.97223465 102.20012428 570 111 C571.46373047 112.28197266 571.46373047 112.28197266 572.95703125 113.58984375 C583.54836687 123.04292312 583.54836687 123.04292312 584.5625 127.4375 C583.7092341 131.3246002 581.09712065 132.80920729 578 135 C576.31090473 136.20610234 574.62357272 137.41467587 572.9375 138.625 C571.98359375 139.30949219 571.0296875 139.99398437 570.046875 140.69921875 C566.79888513 143.15186751 563.75260765 145.76428461 560.6875 148.4375 C550.40831944 157.2880383 539.92248715 163.7243174 527 168 C526.01 168.33 525.02 168.66 524 169 C507.3002248 170.46737814 492.12642754 168.40286445 477.35546875 160.171875 C474.99082169 158.77728451 474.99082169 158.77728451 472 159 C461.8010722 178.48678512 455.41779649 197.38708238 454.4375 219.5 C454.39431641 220.4178125 454.35113281 221.335625 454.30664062 222.28125 C454.20166544 224.52072061 454.09950752 226.76028092 454 229 C454.65838867 228.9582666 455.31677734 228.9165332 455.99511719 228.87353516 C500.73658488 226.55109131 546.50386732 263.79330342 577.8515625 291.9765625 C579.60598968 293.62891392 581.17456309 295.30873197 582.75 297.125 C584.86396082 299.29341785 584.86396082 299.29341785 587.75 299 C590.78660874 298.12550336 590.78660874 298.12550336 592.78515625 297.24609375 C601.79962397 293.65072801 613.38033568 293.26488062 622.5625 296.5625 C629.23219578 299.80076797 635.36204584 304.64711431 638.375 311.57421875 C640.72212039 320.68397978 639.57948676 329.85078908 635 338 C629.52688098 346.88977024 622.36565918 352.47990491 613.234375 357.26171875 C612.48522324 357.65561798 611.73607147 358.04951721 610.96421814 358.45535278 C604.01127094 362.06788756 596.9211593 365.30467207 589.73800659 368.42861938 C585.83239288 370.12762463 581.9365484 371.848859 578.0390625 373.56640625 C577.22144943 373.92604965 576.40383636 374.28569305 575.56144714 374.65623474 C567.03017893 378.41422189 558.54248327 382.26679001 550.05548096 386.1234436 C535.37640031 392.79051071 520.67884757 399.41662844 505.94485474 405.96151733 C504.14848301 406.76022509 502.35292787 407.56077276 500.55831909 408.36343384 C491.06332834 412.60757771 481.52474138 416.66093089 471.80859375 420.375 C470.96137253 420.69909348 470.11415131 421.02318695 469.24125671 421.35710144 C430.65714494 435.8772028 396.37549517 434.87335824 358.87451172 418.3046875 C357.02378863 417.46467865 355.18533051 416.5968148 353.36376953 415.6953125 C352.57470215 415.31117188 351.78563477 414.92703125 350.97265625 414.53125 C350.295979 414.18642578 349.61930176 413.84160156 348.92211914 413.48632812 C346.94476627 412.79367978 346.94476627 412.79367978 344.87670898 413.77929688 C342.86867815 414.99319144 342.86867815 414.99319144 341 417 C340.01 417 339.02 417 338 417 C337.88301758 417.59546631 337.76603516 418.19093262 337.64550781 418.80444336 C336.60673831 422.33759545 334.11183694 424.82141248 331.75 427.5625 C331.27175781 428.13935547 330.79351563 428.71621094 330.30078125 429.31054688 C327.45980996 432.64811071 324.85600067 434.8301599 321 437 C319.97695052 438.65261839 318.97383946 440.31791365 318 442 C317.01 442.33 316.02 442.66 315 443 C314.11588398 444.82900132 314.11588398 444.82900132 313.5625 447.0625 C312.57076673 450.29596367 311.49935587 453.37295583 310.0625 456.4375 C309.76472656 457.07558594 309.46695313 457.71367188 309.16015625 458.37109375 C308 460 308 460 305.91015625 461.01953125 C305.27980469 461.34308594 304.64945313 461.66664063 304 462 C303.31126713 465.31796085 303.31126713 465.31796085 303 469 C302.649375 470.010625 302.29875 471.02125 301.9375 472.0625 C300.86106919 475.43531655 300.4265658 477.48771555 301 481 C302.47772045 482.9214552 304.04204133 484.60523721 305.78515625 486.2890625 C307 488 307 488 306.70703125 489.87890625 C306.47371094 490.57886719 306.24039063 491.27882813 306 492 C304.96443173 501.42367129 306.64442629 510.57247133 311 519 C314.00604595 521.31741214 314.00604595 521.31741214 317 523 C318.3899408 525.7798816 318.18488204 527.9186326 318 531 C317.67161133 531.58845703 317.34322266 532.17691406 317.00488281 532.78320312 C315.63942872 535.79542936 315.74074583 538.29365916 315.734375 541.59375 C315.73050781 543.50994141 315.73050781 543.50994141 315.7265625 545.46484375 C315.73075195 546.12726074 315.73494141 546.78967773 315.73925781 547.47216797 C315.74996541 549.49346943 315.73934604 551.51388225 315.7265625 553.53515625 C315.72914063 554.81261719 315.73171875 556.09007812 315.734375 557.40625 C315.73663086 558.57478516 315.73888672 559.74332031 315.74121094 560.94726562 C315.99204211 563.90612697 316.61210366 565.44603723 318 568 C317.125 569.9375 317.125 569.9375 316 572 C316.04125 572.825 316.0825 573.65 316.125 574.5 C316 577 316 577 314.125 579.125 C313.42375 579.74375 312.7225 580.3625 312 581 C311.34 581.99 310.68 582.98 310 584 C309.34 584 308.68 584 308 584 C307.89042969 584.59941406 307.78085938 585.19882812 307.66796875 585.81640625 C306.45571196 589.77928079 303.38055017 591.89666734 300 594 C296.50489336 595.40696288 292.99902207 596.60582959 289.40234375 597.7265625 C284.47393061 599.57118097 280.93859756 601.59210367 278 606 C277.01 606 276.02 606 275 606 C274.896875 606.78375 274.79375 607.5675 274.6875 608.375 C274 611 274 611 271 613 C270.34 613 269.68 613 269 613 C267.365311 614.65448684 267.365311 614.65448684 265.6875 616.75 C263.01290851 619.892645 260.42750797 622.64970882 257 625 C256.34 625 255.68 625 255 625 C255.1546875 626.85625 255.1546875 626.85625 255.3125 628.75 C255.39951172 629.79414062 255.39951172 629.79414062 255.48828125 630.859375 C256.11557768 633.48348526 257.37748605 634.85653181 259 637 C262.58462199 645.52396734 263.84938114 653.79605028 263 663 C262.67 663.66 262.34 664.32 262 665 C261.8723696 666.60247055 261.77173805 668.20716348 261.6875 669.8125 C261.3622476 672.99172766 260.99420426 675.0123818 259.625 677.9375 C256.19576751 680.63189696 252.89454135 681.26497766 248.69140625 682.25 C245.12354938 683.24423588 242.93758455 684.77889948 240 687 C239.2575 687.309375 238.515 687.61875 237.75 687.9375 C235.26028151 689.4491148 234.85400496 691.29565096 234 694 C234.66 694.66 235.32 695.32 236 696 C237.16034873 703.56487093 235.05961234 710.78612935 233 718 C232.773125 719.11375 232.54625 720.2275 232.3125 721.375 C230.86349839 724.27300322 229.94087877 724.84232656 227.30078125 726.578125 C222.48484536 730.09483056 219.84721802 734.2797691 216.875 739.375 C212.15835784 747.25692191 207.25989785 754.68679306 201.0625 761.5 C199.11046114 763.65092584 197.17142665 765.79269335 195.3203125 768.03125 C189.12086157 775.50618604 180.1526235 785.29967786 170.0078125 786.29296875 C168.58082031 786.24076172 168.58082031 786.24076172 167.125 786.1875 C166.15820312 786.16042969 165.19140625 786.13335938 164.1953125 786.10546875 C163.10863281 786.05326172 163.10863281 786.05326172 162 786 C162 787.32 162 788.64 162 790 C160.329375 789.938125 160.329375 789.938125 158.625 789.875 C154.95633975 789.58878141 154.95633975 789.58878141 153 792 C149.11226273 791.67602189 145.39803811 791.07237057 141.5625 790.375 C140.2940625 790.189375 140.2940625 790.189375 139 790 C138.67 790.33 138.34 790.66 138 791 C135.0212215 790.99086264 132.05417809 790.86680056 129.078125 790.7421875 C125.54671336 791.03796563 123.97790408 792.16070631 121 794 C117.7734375 794.66015625 117.7734375 794.66015625 114.375 795.0625 C109.38207678 795.64391414 109.38207678 795.64391414 105 798 C102.73828125 797.9765625 102.73828125 797.9765625 100.3125 797.625 C99.10013672 797.45871094 99.10013672 797.45871094 97.86328125 797.2890625 C97.24839844 797.19367187 96.63351562 797.09828125 96 797 C95.67 796.01 95.34 795.02 95 794 C93.35 794 91.7 794 90 794 C90 792.68 90 791.36 90 790 C88.68 790.66 87.36 791.32 86 792 C85.89042969 791.40832031 85.78085937 790.81664062 85.66796875 790.20703125 C84.72957591 785.53032549 83.64806099 782.02965803 81 778 C80.3125 775.6875 80.3125 775.6875 80 774 C81.32 773.67 82.64 773.34 84 773 C83.86493945 766.3206419 83.26196176 761.56583077 79.390625 756.0703125 C75.2790994 749.94922102 72.96122756 742.91195404 70.75 735.9375 C68.24742695 728.70609017 64.26094729 724.39107673 59 719 C50.35699172 709.17666901 49.0846241 695.27887555 47.4921875 682.734375 C47.12717312 680.02102671 47.12717312 680.02102671 45.9609375 677.8125 C44.17645252 672.58961714 44.71836379 666.84416924 44.78515625 661.3671875 C44.67295402 655.06660069 43.54566242 651.5074401 39.77392578 646.48779297 C37.67376294 643.54247789 36.04835287 640.48610987 34.37890625 637.27734375 C34.06772858 636.68198822 33.7565509 636.08663269 33.4359436 635.47323608 C32.15060394 633.01078938 30.87330035 630.54440658 29.60717773 628.07202148 C25.23322011 619.4000018 25.23322011 619.4000018 19.0703125 611.96484375 C15.13943203 607.78533496 15.16754862 603.75750212 15.18945312 598.1875 C15.23005859 597.011875 15.27066406 595.83625 15.3125 594.625 C15.31056641 593.45710937 15.30863281 592.28921875 15.30664062 591.0859375 C15.41412148 584.47401164 16.27132468 579.25808237 19.00854492 573.23828125 C20.96073942 568.83106156 21.78829493 564.099533 22.875 559.41796875 C24.05497406 555.83297812 25.51999644 553.80000402 28 551 C28.495 549.9171875 28.495 549.9171875 29 548.8125 C30 547 30 547 31.9375 546.1875 C34.49996798 544.71213965 35.41700105 543.06323205 36.45703125 540.328125 C37.9430519 533.95641057 38.23985374 527.31439365 35.125 521.5 C34.42375 520.675 33.7225 519.85 33 519 C31.10198766 515.20397531 30.71106461 512.23771905 31 508 C31.33 507.67 31.66 507.34 32 507 C32.41825353 501.66726754 31.56294248 498.6330114 29 494 C28.5359375 492.5459375 28.5359375 492.5459375 28.0625 491.0625 C27.01657949 488.04778794 25.56777151 485.57826952 23.94140625 482.84765625 C22.6553398 480.32355072 22.10161701 477.79395254 21.484375 475.04296875 C19.91756348 468.4345621 17.46627026 464.06982029 13 459 C13 458.34 13 457.68 13 457 C12.401875 456.73960937 11.80375 456.47921875 11.1875 456.2109375 C8.83622528 454.90933899 7.6824774 453.70180804 6 451.625 C3.7921287 448.98130161 1.52913771 446.510436 -0.98046875 444.15625 C-12.57617415 433.24567276 -12.57617415 433.24567276 -14 425 C-13 422 -13 422 -10 420 C-9.26393501 416.43230448 -9.26393501 416.43230448 -9 413 C-7.68 413 -6.36 413 -5 413 C-5.99 411.68 -6.98 410.36 -8 409 C-7.67 408.67 -7.34 408.34 -7 408 C-6.96819819 405.80113168 -7.06800324 403.61880288 -7.16015625 401.421875 C-6.97322508 398.59511096 -6.09634926 396.60432423 -5 394 C-2.69926372 385.87695432 -2.69926372 385.87695432 -4.5 377.9375 C-7.14006854 374.83541946 -9.22606324 373.45811193 -13 372 C-13 371.01 -13 370.02 -13 369 C-13.99 369 -14.98 369 -16 369 C-16 368.01 -16 367.02 -16 366 C-16.99 366 -17.98 366 -19 366 C-19.33 366.99 -19.66 367.98 -20 369 C-21.22976563 368.96519531 -21.22976563 368.96519531 -22.484375 368.9296875 C-23.56203125 368.91164063 -24.6396875 368.89359375 -25.75 368.875 C-27.35101562 368.84019531 -27.35101562 368.84019531 -28.984375 368.8046875 C-32.00561625 369.00036375 -33.38381598 369.63244926 -36 371 C-40.5979043 371.31570118 -44.02701855 370.83059392 -47.5625 367.8125 C-49.20159367 364.6055776 -49.33058394 362.55377738 -49 359 C-49.99 358.67 -50.98 358.34 -52 358 C-52.45375 357.21625 -52.9075 356.4325 -53.375 355.625 C-55.31065848 352.49816708 -56.69897999 351.58667812 -60 350 C-70.58943233 348.69864807 -85.31909391 349.3585839 -94 356 C-96.83984375 356.84375 -96.83984375 356.84375 -99.9375 357.5 C-104.24224355 358.41428182 -107.2717223 359.69055616 -111 362 C-113.0625 362.625 -113.0625 362.625 -115 363 C-117.79592544 363.60396155 -119.04671624 364.03353986 -121.4375 365.75 C-125.51507151 367.73905927 -128.79591801 366.2475792 -133 365 C-134.85229104 364.45195372 -136.70652211 363.91042774 -138.5625 363.375 C-139.40941406 363.11460937 -140.25632812 362.85421875 -141.12890625 362.5859375 C-148.01277268 361.1810668 -154.26079887 362.20895401 -161 363.75 C-161.75539063 363.90726563 -162.51078125 364.06453125 -163.2890625 364.2265625 C-167.25691579 365.11285275 -170.65443374 366.22911644 -174.25 368.14453125 C-179.72783372 371.04480014 -184.30069521 369.93498912 -190.1328125 368.4609375 C-195.54565226 366.69911123 -199.63175397 363.56607721 -204 360 C-205.74858437 358.5815864 -207.49862536 357.1649669 -209.25 355.75 C-210.05953125 355.08484375 -210.8690625 354.4196875 -211.703125 353.734375 C-213.89038101 351.96862183 -213.89038101 351.96862183 -216.16796875 350.9375 C-218 350 -218 350 -220.0625 347.25 C-223.09557983 343.3759728 -227.10144476 341.59683496 -231.40625 339.375 C-235.89697573 336.99437431 -239.22817813 334.24911155 -242 330 C-242.484375 327.703125 -242.484375 327.703125 -242.75 325.25 C-243.76548129 319.43249701 -246.57069015 315.8125705 -251 312 C-251.71929687 311.66226562 -252.43859375 311.32453125 -253.1796875 310.9765625 C-253.78039062 310.65429688 -254.38109375 310.33203125 -255 310 C-255.75 306.875 -255.75 306.875 -256 304 C-257.98 303.67 -259.96 303.34 -262 303 C-262 302.01 -262 301.02 -262 300 C-262.99 299.67 -263.98 299.34 -265 299 C-265 297.02 -265 295.04 -265 293 C-263.02 293 -261.04 293 -259 293 C-259 292.34 -259 291.68 -259 291 C-259.74765625 291.16757812 -260.4953125 291.33515625 -261.265625 291.5078125 C-262.74289062 291.81332031 -262.74289062 291.81332031 -264.25 292.125 C-265.22453125 292.33382813 -266.1990625 292.54265625 -267.203125 292.7578125 C-270.23442766 293.0202996 -271.48017346 292.61988849 -274 291 C-274 290.34 -274 289.68 -274 289 C-275.2065625 288.62875 -275.2065625 288.62875 -276.4375 288.25 C-279 287 -279 287 -279.875 285.375 C-280.02613766 282.50338453 -279.69166865 279.83714362 -279.25390625 277 C-278.71056671 272.72015622 -279.1373392 269.82335637 -281 266 C-282.86342722 263.81249848 -284.5644384 262.62370773 -287 261 C-285.56770833 260.15364583 -284.13541667 259.30729167 -282.703125 258.4609375 C-277.93691909 254.37249481 -276.40516846 249.64465906 -275.375 243.625 C-273.95340549 235.59556957 -273.95340549 235.59556957 -272.8125 231.75 C-271.75383889 226.86387178 -271.28217274 221.97076083 -272 217 C-272.50789063 216.401875 -273.01578125 215.80375 -273.5390625 215.1875 C-275.76647212 211.85234122 -275.06852702 208.56701406 -274.6875 204.75 C-274.62626953 204.00492188 -274.56503906 203.25984375 -274.50195312 202.4921875 C-274.3492857 200.66017845 -274.17660246 198.82985684 -274 197 C-274.99 197 -275.98 197 -277 197 C-277.33 195.68 -277.66 194.36 -278 193 C-278.99 193 -279.98 193 -281 193 C-281.56164384 183.45205479 -281.56164384 183.45205479 -278 179 C-277.34 178.401875 -276.68 177.80375 -276 177.1875 C-273.75423393 174.73119336 -272.97257219 172.38577751 -271.90234375 169.2734375 C-269.55337764 163.35526313 -265.92716176 158.06035275 -261.875 153.1875 C-259.17442166 149.75930469 -258.14156349 146.510812 -257 142.3125 C-255.38301387 136.47787504 -254.03950934 134.25468312 -249 131 C-245.49681152 127.99438532 -244.1926202 125.27572511 -242.5625 121 C-240.77646997 117.26557358 -239.87800266 115.42239047 -236.109375 113.609375 C-233.88580177 113.0297706 -231.65036827 112.49411778 -229.40625 112 C-224.50051466 110.55978412 -221.09035995 107.77528148 -217.14453125 104.609375 C-215 103 -215 103 -213 103 C-212.505 101.515 -212.505 101.515 -212 100 C-211.54625 99.566875 -211.0925 99.13375 -210.625 98.6875 C-207.52359967 95.46681504 -206.09129013 92.18677171 -205.75 87.75 C-205.82792253 85.04048882 -205.82792253 85.04048882 -207 83 C-207.41309455 78.88494271 -207.7412561 75.224684 -205.5625 71.625 C-205.046875 71.08875 -204.53125 70.5525 -204 70 C-203.505 68.515 -203.505 68.515 -203 67 C-202.34 66.67 -201.68 66.34 -201 66 C-200.979375 65.01 -200.95875 64.02 -200.9375 63 C-200.31749088 58.11992824 -197.32818171 55.46205372 -193.87109375 52.1875 C-190.72245576 49.78853773 -187.45521373 48.12931314 -183.875 46.5 C-177.46167542 43.53738307 -173.24154899 40.39703915 -170 34 C-168.76747162 30.59978677 -167.729228 27.22393636 -166.82421875 23.72265625 C-166 21 -166 21 -164 19 C-161.23497486 19 -159.55532268 19.46735494 -157.54125977 21.39916992 C-156.74933228 22.21285034 -156.74933228 22.21285034 -155.94140625 23.04296875 C-151.5556405 26.89323969 -147.73673467 26.67717695 -142.125 26.3125 C-140.41940623 26.24270264 -138.71367701 26.17611482 -137.0078125 26.11328125 C-135.88850342 26.04814331 -135.88850342 26.04814331 -134.74658203 25.98168945 C-133 26 -133 26 -132 27 C-127.59577037 27.75550138 -123.5811311 28.05777948 -119.76953125 25.5078125 C-118.42716286 24.25632011 -117.10631986 22.98131986 -115.80859375 21.68359375 C-113.42224421 19.4621755 -111.13636141 18.76666612 -108 18 C-104.34070389 16.6770704 -101.17517312 14.99127746 -97.875 12.9375 C-91.59025863 9.03102702 -86.57331093 8.73744335 -79.25 8.37890625 C-75.85686422 8.23290927 -75.85686422 8.23290927 -73 6 C-65.25447925 4.5917235 -56.98332661 4.20333468 -49.25 5.75 C-45.27549648 6.05573104 -43.52892933 4.97976817 -40.28515625 2.8125 C-37.41609622 1.79238977 -35.14609553 2.22506311 -32.18286133 2.68945312 C-28.56563413 3.20406145 -24.96082377 3.22391726 -21.3125 3.25 C-20.21325195 3.2809375 -20.21325195 3.2809375 -19.09179688 3.3125 C-11.6875056 3.36591238 -7.55367258 -0.852834 0 0 Z " fill="#FEFEFE" transform="translate(726,404)"/>
<path d="M0 0 C2.96184708 2.75758177 4.49746527 5.37823551 5.16796875 9.37890625 C5.24619148 16.77095458 4.2059636 21.68138611 -0.30078125 27.58203125 C-5.2875708 32.6586223 -10.73657818 36.31295537 -17.05078125 39.51953125 C-18.3804895 40.20486938 -18.3804895 40.20486938 -19.73706055 40.90405273 C-32.22262537 47.21175053 -45.09900951 52.7092951 -57.90516663 58.32557678 C-66.31630547 62.01847823 -74.69409306 65.78447451 -83.06838989 69.56002808 C-85.60999416 70.70554973 -88.15243479 71.8491967 -90.69506836 72.99243164 C-98.41001669 76.46319201 -106.11737185 79.94889351 -113.8046875 83.48046875 C-139.10976274 95.0877518 -164.79622658 106.42927924 -192.30078125 111.58203125 C-193.18121094 111.76507812 -194.06164063 111.948125 -194.96875 112.13671875 C-219.30917365 115.38971792 -239.18572004 109.52030202 -261.06054688 99.59277344 C-264.12229518 98.21138307 -267.20875769 96.89405206 -270.30078125 95.58203125 C-265.64405264 89.50952068 -261.38008341 86.39686023 -254.359375 83.2734375 C-251.06990719 81.4543576 -249.26445559 79.63772298 -246.86328125 76.76953125 C-246.07953125 75.8878125 -245.29578125 75.00609375 -244.48828125 74.09765625 C-243.22103906 72.64032773 -241.97709773 71.16056833 -240.80078125 69.62890625 C-238.11986689 66.62744778 -236.07995759 65.67966298 -232.05859375 65.17578125 C-229.94602519 65.07129604 -227.835804 65.01613228 -225.72119141 64.96899414 C-202.93309836 64.32547656 -179.8942245 59.67610619 -158.30078125 52.58203125 C-157.59679199 52.35515625 -156.89280273 52.12828125 -156.16748047 51.89453125 C-145.03568213 48.23632794 -135.43336346 43.02788337 -128.30078125 33.58203125 C-125.9765625 33.765625 -125.9765625 33.765625 -123.30078125 34.58203125 C-121.71875 36.8671875 -121.71875 36.8671875 -120.48828125 39.64453125 C-120.06933594 40.56363281 -119.65039062 41.48273437 -119.21875 42.4296875 C-118.91582031 43.13996094 -118.61289063 43.85023438 -118.30078125 44.58203125 C-115.82578125 44.08703125 -115.82578125 44.08703125 -113.30078125 43.58203125 C-113.81441932 39.8153521 -114.56347176 36.94082961 -116.30078125 33.58203125 C-116.30078125 32.59203125 -116.30078125 31.60203125 -116.30078125 30.58203125 C-115.46160156 30.37449219 -114.62242187 30.16695312 -113.7578125 29.953125 C-104.99938725 27.70954125 -96.44516759 25.0513938 -87.88793945 22.13256836 C-82.06229769 20.14745619 -76.20765113 18.31081353 -70.30078125 16.58203125 C-67.01506696 24.01060268 -67.01506696 24.01060268 -66.30078125 27.58203125 C-64.65078125 27.58203125 -63.00078125 27.58203125 -61.30078125 27.58203125 C-61.09211948 22.46981786 -61.81391722 18.45824281 -63.30078125 13.58203125 C-54.64656182 9.44768065 -45.9231631 5.49927349 -37.11328125 1.70703125 C-36.20489502 1.31394775 -35.29650879 0.92086426 -34.3605957 0.51586914 C-33.50167725 0.14840576 -32.64275879 -0.21905762 -31.7578125 -0.59765625 C-30.9944458 -0.92491699 -30.2310791 -1.25217773 -29.44458008 -1.58935547 C-20.29722757 -5.1249567 -8.41850506 -5.20988034 0 0 Z " fill="#1C4822" transform="translate(1350.30078125,713.41796875)"/>
<path d="M0 0 C0.67546875 0.37350586 1.3509375 0.74701172 2.046875 1.13183594 C24.47471498 13.6021303 44.43503201 29.35692255 63 47 C60.52047381 49.89278055 57.97718013 51.03997573 54.46875 52.453125 C52.80271729 53.12939941 52.80271729 53.12939941 51.10302734 53.81933594 C49.31952881 54.52751465 49.31952881 54.52751465 47.5 55.25 C46.27619629 55.74016602 45.05239258 56.23033203 43.79150391 56.73535156 C40.19953084 58.1701632 36.60022984 59.58603124 33 61 C31.64986816 61.53560547 31.64986816 61.53560547 30.27246094 62.08203125 C-2.46103395 75 -2.46103395 75 -13 75 C-13.0825 73.700625 -13.165 72.40125 -13.25 71.0625 C-14.2858673 62.13164406 -18.3316697 55.00018718 -25 49 C-33.15915174 43.31025525 -41.37854673 41.59023584 -51.1875 41.5625 C-52.61606323 41.55669922 -52.61606323 41.55669922 -54.07348633 41.55078125 C-63.51244171 41.70037097 -72.18693496 43.78174453 -81.17260742 46.54101562 C-83 47 -83 47 -86 47 C-87.125 39.375 -87.125 39.375 -86 36 C-91.22701855 35.69252832 -93.62783864 36.29342392 -98 39 C-100.96281993 39.85398927 -103.9762788 40.4051696 -107 41 C-108.45862195 41.35297613 -109.91695822 41.70713498 -111.375 42.0625 C-115.73895432 43.05953702 -120.05384652 43.35883008 -124.51953125 43.55859375 C-127.42132698 44.0749763 -128.68477129 45.24042618 -131 47 C-133.18359375 47.36328125 -133.18359375 47.36328125 -135.4375 47.3125 C-136.17871094 47.30863281 -136.91992188 47.30476562 -137.68359375 47.30078125 C-144.13627417 46.46291212 -149.01026433 42.41718006 -154.20898438 38.80859375 C-157.51683857 36.54907489 -160.67925761 34.65996913 -164.35546875 33.0546875 C-167.58693461 31.52708546 -167.89770344 31.22164256 -169.5 27.75 C-169.665 26.8425 -169.83 25.935 -170 25 C-155.79143719 14.06371226 -140.69949619 4.91012228 -124.875 -3.5 C-124.13024414 -3.89711182 -123.38548828 -4.29422363 -122.61816406 -4.70336914 C-113.32650875 -9.54510519 -103.98883512 -12.73421946 -93.8125 -15.1875 C-92.77158203 -15.44724609 -91.73066406 -15.70699219 -90.65820312 -15.97460938 C-59.20224328 -23.70378808 -27.84927483 -15.6723215 0 0 Z " fill="#1D4823" transform="translate(1239,661)"/>
<path d="M0 0 C8.94428251 16.45589492 17.6810296 33.00504607 26.24885559 49.65953064 C28.8074601 54.63169842 31.38412645 59.59432319 33.96411133 64.55541992 C41.37193559 78.80374866 48.69285821 93.09604117 56.00756836 107.39233398 C62.59843887 120.27257687 69.21342956 133.14019564 75.84692383 145.99853516 C76.34985458 146.97364799 76.34985458 146.97364799 76.86294556 147.96846008 C77.75690287 149.7015294 78.65126223 151.43439133 79.5456543 153.16723633 C80.71151226 155.43808573 81.86494922 157.71364887 83 160 C83.85624782 149.1822904 84.20259799 138.40107819 84.38870239 127.55371094 C84.68078608 110.77177674 85.20460196 94.01139065 85.92425537 77.24255371 C86.59650493 61.47481409 87.21234578 45.71175072 87.29855347 29.92822266 C87.30776162 28.324997 87.32176487 26.72179083 87.34085083 25.11865234 C87.36419951 22.94337713 87.36735741 20.76912423 87.36328125 18.59375 C87.36626221 17.38396484 87.36924316 16.17417969 87.37231445 14.92773438 C87.2320709 12.02686585 87.2320709 12.02686585 85.69995117 10.12304688 C83.03774122 8.36429838 80.12106952 8.39722703 77 8 C76.01 7.01 76.01 7.01 75 6 C75.375 3.375 75.375 3.375 76 1 C79.90520265 0.05626917 83.38688564 -0.04984848 87.39453125 0.12109375 C89.19760742 0.19360352 89.19760742 0.19360352 91.03710938 0.26757812 C92.90592773 0.35168945 92.90592773 0.35168945 94.8125 0.4375 C96.07771484 0.48970703 97.34292969 0.54191406 98.64648438 0.59570312 C101.76458806 0.72513384 104.88235178 0.86009129 108 1 C108.125 3.375 108.125 3.375 108 6 C106 8 106 8 102.5625 8.25 C98.87260454 8.60512403 98.87260454 8.60512403 97.30911255 11.39155579 C95.5744804 16.1729043 95.52441569 20.43450157 95.49169922 25.48510742 C95.4733348 26.53339407 95.45497038 27.58168072 95.43604946 28.66173363 C95.37850066 32.14291915 95.34156906 35.62400779 95.3046875 39.10546875 C95.26821096 41.56235132 95.23044116 44.01921498 95.19145203 46.47605896 C95.11147077 51.68432993 95.04010139 56.8926406 94.97659302 62.10113525 C94.88621211 69.49895279 94.77734943 76.89640894 94.66345704 84.29389763 C94.33617425 105.59416604 94.05050263 126.89496016 93.81365967 148.19642639 C93.7511792 153.79100804 93.67818391 159.38544125 93.60479736 164.97988892 C93.5633628 168.55064509 93.53947489 172.12121975 93.51708984 175.69213867 C93.49259432 177.76612206 93.46742398 179.84009765 93.44140625 181.9140625 C93.44138107 182.81764999 93.4413559 183.72123749 93.44132996 184.65220642 C93.34322151 190.55361169 93.34322151 190.55361169 91.68516541 192.71005249 C88.89415728 194.84649201 86.12833214 194.55012531 82.6875 194.625 C81.39199219 194.67914062 80.09648438 194.73328125 78.76171875 194.7890625 C73.47615771 193.68035707 71.89223223 191.3991288 69 187 C66.33075983 182.73701343 63.83350625 178.38661812 61.375 174 C60.66732842 172.74933217 59.95948092 171.49876386 59.25146484 170.24829102 C53.36344142 159.80832807 47.78114135 149.21843911 42.31445312 138.55224609 C40.7420656 135.49917418 39.13912339 132.46316819 37.53027344 129.42919922 C25.36197365 106.47606229 13.56931386 83.31953004 2.03857422 60.0402832 C1.72064407 59.40015793 1.40271393 58.76003265 1.07514954 58.10050964 C0.2230103 56.38439373 -0.62674914 54.66709669 -1.47631836 52.94970703 C-2.88394712 50.22466767 -4.40993057 47.62109378 -6 45 C-6.3534199 55.5618997 -6.6849679 66.12438968 -7 76.6875 C-7.0237545 77.4835968 -7.047509 78.2796936 -7.07198334 79.09991455 C-7.83064542 104.73626624 -8.1829357 130.35258923 -8.125 156 C-8.12243195 157.14518412 -8.12243195 157.14518412 -8.11981201 158.31350327 C-8.09753351 167.54244959 -8.05642141 176.7711939 -8 186 C-4.7 187.32 -1.4 188.64 2 190 C1.34 191.32 0.68 192.64 0 194 C-10.23 194 -20.46 194 -31 194 C-31.33 192.68 -31.66 191.36 -32 190 C-30.82630859 189.49339844 -30.82630859 189.49339844 -29.62890625 188.9765625 C-28.61699219 188.53054688 -27.60507812 188.08453125 -26.5625 187.625 C-25.55316406 187.18414063 -24.54382813 186.74328125 -23.50390625 186.2890625 C-20.87856453 185.24923714 -20.87856453 185.24923714 -20 183 C-18.99409953 176.32961021 -18.81288387 169.58291446 -18.69018555 162.84912109 C-18.6698633 161.88539707 -18.64954105 160.92167305 -18.62860298 159.92874527 C-18.56377351 156.75205169 -18.50589268 153.57528648 -18.44921875 150.3984375 C-18.42840429 149.28992809 -18.40758984 148.18141869 -18.38614464 147.03931808 C-17.92649415 122.26437273 -17.81244912 97.49064586 -17.81469727 72.71191406 C-17.81480172 66.68170997 -17.80079243 60.65161631 -17.78392506 54.62143898 C-17.77285774 49.9049526 -17.77077589 45.18849434 -17.77130699 40.47199631 C-17.77013276 38.24325531 -17.76574251 36.01451345 -17.75797462 33.78578568 C-17.74821837 30.71729371 -17.75102769 27.64906221 -17.75708008 24.58056641 C-17.74865082 23.22692238 -17.74865082 23.22692238 -17.74005127 21.84593201 C-17.65457619 14.88161204 -17.65457619 14.88161204 -21 9 C-22.99603206 8.79111292 -24.99742941 8.63224523 -27 8.5 C-32.88888889 8.11111111 -32.88888889 8.11111111 -34 7 C-34.125 4.5 -34.125 4.5 -34 2 C-32.36845345 0.36845345 -30.4749777 0.77587707 -28.22265625 0.68359375 C-26.73862305 0.62075195 -26.73862305 0.62075195 -25.22460938 0.55664062 C-24.18111328 0.51732422 -23.13761719 0.47800781 -22.0625 0.4375 C-20.54946289 0.37272461 -20.54946289 0.37272461 -19.00585938 0.30664062 C-12.6671248 0.04949943 -6.34362617 -0.05532998 0 0 Z " fill="#FBFCFB" transform="translate(597,1224)"/>
<path d="M0 0 C1.32 0.66 2.64 1.32 4 2 C3.6452187 4.57216446 3.1957002 5.79677287 1.375 7.6875 C-1.68895472 9.38073813 -4.55256493 9.55311027 -8 10 C-10.36445893 11.92596038 -10.36445893 11.92596038 -10.22705078 15.35494995 C-10.22675199 16.82635229 -10.21525398 18.29777573 -10.1953125 19.76904297 C-10.19239197 20.57291946 -10.18947144 21.37679596 -10.1864624 22.20503235 C-10.17883205 23.95927234 -10.16657976 25.71349675 -10.15032959 27.46767807 C-10.12471714 30.27317106 -10.11174216 33.07847334 -10.10205078 35.88406372 C-10.07533358 42.877499 -10.02779983 49.87076198 -9.97924805 56.86407471 C-9.23511567 165.67550388 -9.23511567 165.67550388 -35.03515625 193.34765625 C-43.64887894 200.59140316 -53.12718637 201.76616718 -64 201 C-73.97954694 199.21836798 -81.16170443 194.20684203 -87.3671875 186.24609375 C-88.375 184.625 -88.375 184.625 -90 181 C-90.33386719 180.28199219 -90.66773438 179.56398438 -91.01171875 178.82421875 C-110.6053565 131.98886903 -99.24381624 63.33583885 -98 14 C-99.299375 14.020625 -100.59875 14.04125 -101.9375 14.0625 C-103.29165633 14.08399454 -104.64756083 14.07148199 -106 14 C-107 13 -107 13 -107.125 9.5 C-107 6 -107 6 -106 5 C-104.14264335 5.09709622 -102.28861991 5.25706593 -100.4375 5.4375 C-86.08121645 6.57011663 -71.4258523 6.65018977 -57.09765625 5.12109375 C-56.40542969 5.08113281 -55.71320312 5.04117187 -55 5 C-54 6 -54 6 -53.8125 8.4375 C-54 11 -54 11 -56 13 C-59.26948106 13.5551949 -62.53859198 13.89235626 -65.8359375 14.2421875 C-69.43920923 15.10519332 -70.71103055 16.14692433 -73 19 C-80.50823218 34.01646436 -75.19825912 64.28722596 -75.1875 81 C-75.18709969 82.38384132 -75.18709969 82.38384132 -75.18669128 83.79563904 C-75.18163293 117.03081144 -75.18163293 117.03081144 -74.25 150.25 C-74.21933441 151.09304688 -74.18866882 151.93609375 -74.15707397 152.8046875 C-73.65728186 165.82821366 -72.96609318 181.1826513 -63.1171875 190.84765625 C-58.77550109 193.21075125 -53.77798384 192.55871585 -49 192 C-40.65317866 188.29030163 -36.41258253 179.72999367 -33.22265625 171.5859375 C-25.47656738 148.86737653 -22.87844887 125.97179279 -22.796875 102.07421875 C-22.79006436 100.68433612 -22.78320687 99.29445372 -22.77630615 97.90457153 C-22.76075198 94.2479211 -22.75416697 90.59131618 -22.75161743 86.93463516 C-22.75053604 85.4322313 -22.748803 83.92982776 -22.74642944 82.42742538 C-22.71198314 60.17245704 -23.04294092 38.09667643 -26 16 C-29.14930893 14.95023036 -31.38814456 14.89868405 -34.6875 14.9375 C-35.68136719 14.94652344 -36.67523437 14.95554687 -37.69921875 14.96484375 C-38.45847656 14.97644531 -39.21773437 14.98804688 -40 15 C-40.38063221 12.6739143 -40.71269945 10.33944736 -41 8 C-39.25938652 6.25938652 -36.79366472 6.58098029 -34.41796875 6.3515625 C-33.25716797 6.23296875 -32.09636719 6.114375 -30.90039062 5.9921875 C-28.46844536 5.7516795 -26.03616085 5.51457183 -23.60351562 5.28125 C-11.01136505 4.70110067 -11.01136505 4.70110067 0 0 Z " fill="#FAFBFA" transform="translate(1053,1219)"/>
<path d="M0 0 C0.68676819 -0.00136459 1.37353638 -0.00272919 2.08111572 -0.00413513 C4.42781922 -0.00621138 6.77440228 0.00030706 9.12109375 0.0078125 C9.93540863 0.00903107 10.74972351 0.01024963 11.5887146 0.01150513 C29.44034655 0.04202439 47.29073755 0.28405376 65.14033127 0.53897858 C67.37602049 0.5703817 69.61172646 0.60016047 71.84744263 0.62957764 C75.40213914 0.6767738 78.95672261 0.72917855 82.51128387 0.78562737 C84.48023561 0.81586281 86.44925604 0.84151373 88.41827393 0.86708069 C89.59484558 0.88701584 90.77141724 0.90695099 91.98364258 0.92749023 C93.53260979 0.95080666 93.53260979 0.95080666 95.11286926 0.97459412 C97.55859375 1.1328125 97.55859375 1.1328125 99.55859375 2.1328125 C99.11482732 6.21546364 98.37315544 9.90603884 97.12109375 13.8203125 C95.3357846 19.50004603 94.41755376 25.25146281 93.55859375 31.1328125 C92.23859375 31.4628125 90.91859375 31.7928125 89.55859375 32.1328125 C89.52121094 31.25238281 89.48382812 30.37195312 89.4453125 29.46484375 C89.37957031 28.30339844 89.31382812 27.14195313 89.24609375 25.9453125 C89.18808594 24.79675781 89.13007812 23.64820313 89.0703125 22.46484375 C88.29244996 17.39983039 86.6295546 14.93603313 82.55859375 11.8828125 C72.38940712 5.95078697 56.10502228 7.9953538 44.62109375 7.8203125 C43.58509033 7.7905835 42.54908691 7.76085449 41.48168945 7.73022461 C35.8314171 7.57541675 35.8314171 7.57541675 30.9296875 10.02734375 C28.31858851 14.03698008 28.24584089 17.49731243 28.03125 22.1796875 C27.9692617 23.48011993 27.9692617 23.48011993 27.90602112 24.80682373 C27.32073189 38.25331382 27.20799242 51.7172935 27.02636719 65.17407227 C26.975264 68.90254447 26.92005165 72.63095588 26.86523438 76.359375 C26.75910775 83.61713541 26.65736811 90.8749479 26.55859375 98.1328125 C27.92371849 97.88773705 27.92371849 97.88773705 29.31642151 97.63771057 C33.15743075 97.03955661 36.90049305 97.05345031 40.7734375 97.09765625 C42.36263668 97.09394445 43.95183194 97.08801689 45.54101562 97.08007812 C48.02146669 97.06952092 50.49903489 97.0703579 52.97924805 97.10864258 C62.55251481 97.57630367 62.55251481 97.57630367 71.17626953 94.28955078 C73.08783475 92.1504129 73.08783475 92.1504129 74.46704102 89.84985352 C74.82725342 89.28322998 75.18746582 88.71660645 75.55859375 88.1328125 C76.21859375 88.1328125 76.87859375 88.1328125 77.55859375 88.1328125 C77.55859375 96.0528125 77.55859375 103.9728125 77.55859375 112.1328125 C73.08637153 109.89670139 73.08637153 109.89670139 70.93359375 107.0703125 C68.88739978 104.12456537 68.88739978 104.12456537 66.55859375 103.1328125 C63.56889086 103.04576104 60.6027442 103.01731105 57.61328125 103.03515625 C56.72826935 103.0365712 55.84325745 103.03798615 54.931427 103.03944397 C52.09878184 103.0450511 49.26621511 103.05760479 46.43359375 103.0703125 C44.51562614 103.07532658 42.59765729 103.07988965 40.6796875 103.08398438 C35.97262593 103.09502284 31.26562315 103.11229225 26.55859375 103.1328125 C26.66701745 110.84450803 26.77981921 118.5561267 26.89793301 126.26767921 C26.9526695 129.84997587 27.00599986 133.43228101 27.0559082 137.01464844 C27.10429218 140.48363384 27.1566418 143.95254039 27.2115345 147.42142868 C27.24128529 149.36299574 27.26711962 151.30462159 27.29283142 153.24624634 C26.93202081 170.19688709 26.93202081 170.19688709 31.55859375 186.1328125 C38.08656755 191.60219596 47.77983069 190.34809352 55.80859375 190.3828125 C56.98550781 190.4034375 58.16242188 190.4240625 59.375 190.4453125 C68.00033014 190.48368994 75.44896861 189.6916357 82.87109375 185.0703125 C88.66896416 178.73310531 91.08033354 171.46482459 92.55859375 163.1328125 C94.20859375 163.4628125 95.85859375 163.7928125 97.55859375 164.1328125 C97.28505037 168.80464542 96.9442109 173.4690485 96.55859375 178.1328125 C96.50477539 178.81617676 96.45095703 179.49954102 96.39550781 180.20361328 C96.22572959 182.22512522 96.02199604 184.24048613 95.80859375 186.2578125 C95.63070312 188.08699219 95.63070312 188.08699219 95.44921875 189.953125 C94.27701303 194.13810508 93.34314244 194.96793587 89.55859375 197.1328125 C85.59005232 197.68017028 81.66285916 197.57290229 77.6640625 197.48828125 C76.48507889 197.48024979 75.30609528 197.47221832 74.09138489 197.46394348 C70.30916383 197.43496769 66.5279615 197.37892554 62.74609375 197.3203125 C57.82298361 197.26321333 52.89983193 197.21675903 47.9765625 197.17578125 C46.76515594 197.16545868 45.55374939 197.15513611 44.30563354 197.14450073 C36.336331 197.0964627 28.38580278 197.19552301 20.421875 197.49609375 C19.48200241 197.52769089 18.54212982 197.55928802 17.57377625 197.59184265 C11.94670953 197.84101527 6.58688843 198.57056891 1.07121277 199.71769714 C-1.47988583 200.1391698 -3.86076915 200.20388198 -6.44140625 200.1328125 C-6.77140625 198.8128125 -7.10140625 197.4928125 -7.44140625 196.1328125 C-3.99689888 193.83647426 -1.50328342 193.59264765 2.55859375 193.1328125 C2.55279297 192.235625 2.54699219 191.3384375 2.54101562 190.4140625 C2.51481064 183.16651193 2.60039688 175.94123859 2.84475708 168.69671631 C3.602852 145.97110582 3.67280379 123.24698632 3.68197632 100.51116943 C3.68357244 97.91743575 3.68711722 95.32371138 3.69116211 92.72998047 C5.9231872 48.68944599 5.9231872 48.68944599 -1.44140625 6.1328125 C-4.08140625 5.8028125 -6.72140625 5.4728125 -9.44140625 5.1328125 C-9.06640625 3.1953125 -9.06640625 3.1953125 -8.44140625 1.1328125 C-5.59014921 -0.29281602 -3.19115755 0.00297544 0 0 Z " fill="#FAFBFB" transform="translate(720.44140625,1218.8671875)"/>
<path d="M0 0 C2 2 2 2 2 6 C0.00820797 7.36935702 -2.04941692 8.27230625 -4.25 9.265625 C-6.35379059 10.99755096 -6.35379059 10.99755096 -6.45703125 14.41796875 C-6.15030171 20.1779579 -4.37583218 25.58164819 -2.6875 31.0625 C-2.16422119 32.79512085 -2.16422119 32.79512085 -1.63037109 34.56274414 C1.30301458 44.10355879 4.535577 53.53234824 7.875 62.9375 C8.11537994 63.61475128 8.35575989 64.29200256 8.60342407 64.98977661 C11.41523907 73.1577017 11.41523907 73.1577017 15 81 C19.34060349 71.53059756 23.67350478 62.05774915 27.99365234 52.57899475 C29.92789865 48.33814296 31.8761306 44.10441324 33.84375 39.87890625 C34.56275599 38.31522185 35.28153835 36.75143458 36 35.1875 C36.31904297 34.51605957 36.63808594 33.84461914 36.96679688 33.15283203 C38.72218291 29.29240165 39.53551467 26.23598122 39 22 C37.94661498 20.17118338 37.94661498 20.17118338 36.4375 18.8125 C35.633125 17.884375 34.82875 16.95625 34 16 C34.33 15.01 34.66 14.02 35 13 C36.07121094 13.24169922 36.07121094 13.24169922 37.1640625 13.48828125 C44.42340758 14.79816308 50.99114985 14.19885495 58 12 C61.4375 11.875 61.4375 11.875 64 12 C63.67 13.65 63.34 15.3 63 17 C61.989375 17 60.97875 17 59.9375 17 C55.55826889 17.71014559 53.74021068 19.78809654 50.96508789 23.11425781 C46.48722427 29.69002474 43.48314438 37.13247625 40.25 44.375 C39.45854927 46.12801149 38.66655298 47.88077676 37.87402344 49.63330078 C36.30086497 53.12107753 34.73829935 56.61333623 33.18359375 60.109375 C31.53770618 63.80739984 29.86314341 67.49080768 28.16827393 71.16659546 C26.84049617 74.05970396 25.54675 76.9678815 24.25 79.875 C23.77852539 80.88739746 23.30705078 81.89979492 22.82128906 82.94287109 C19.98063048 89.48218764 19.66953229 93.3122431 22 100 C22.25330078 100.85891846 22.50660156 101.71783691 22.76757812 102.6027832 C23.79598774 106.08459394 24.89407478 109.54227461 26 113 C26.26675537 113.8368634 26.53351074 114.67372681 26.80834961 115.53594971 C28.75483727 121.6351681 30.72103883 127.72781215 32.69824219 133.81713867 C33.39505847 135.96727303 34.08910538 138.11830702 34.78027344 140.27026367 C38.347935 151.37541802 42.01009729 162.40666976 46.328125 173.24609375 C46.65262634 174.06199478 46.97712769 174.87789581 47.3114624 175.71852112 C49.99722918 183.21690765 49.99722918 183.21690765 55.625 188.25 C56.800625 188.62125 56.800625 188.62125 58 189 C59 190 59 190 59 195 C46.46 195.33 33.92 195.66 21 196 C20.67 194.02 20.34 192.04 20 190 C21.65 189.34 23.3 188.68 25 188 C24.42363104 181.99320151 23.14243187 176.64315746 21.26953125 170.91796875 C20.86017586 169.63748405 20.86017586 169.63748405 20.44255066 168.33113098 C19.57246277 165.6144162 18.69276149 162.90093328 17.8125 160.1875 C17.24087851 158.40971663 16.66991002 156.63172316 16.09960938 154.85351562 C15.24974694 152.2045989 14.3987668 149.55607818 13.54348755 146.90890503 C12.09890907 142.4371509 10.67021588 137.96127232 9.27099609 133.47509766 C8.99591721 132.59461258 8.72083832 131.7141275 8.43742371 130.80696106 C7.91386024 129.12735749 7.39284824 127.44695591 6.87471008 125.76567078 C5.97015021 122.09370556 5.97015021 122.09370556 4 119 C3.63318115 119.88163818 3.2663623 120.76327637 2.88842773 121.67163086 C-0.66811262 130.07295339 -4.56702723 138.25331854 -8.71484375 146.37890625 C-9.21899811 147.3690976 -9.72315247 148.35928894 -10.24258423 149.37948608 C-12.33874997 153.49014233 -14.43919416 157.59839796 -16.55786133 161.69750977 C-18.12287677 164.73084089 -19.67009251 167.772717 -21.21484375 170.81640625 C-21.93655006 172.19621422 -21.93655006 172.19621422 -22.6728363 173.60389709 C-25.23908689 178.69546739 -26.59697884 182.28411031 -26 188 C-24.02 188.66 -22.04 189.32 -20 190 C-20 191.32 -20 192.64 -20 194 C-22.81824192 195.40912096 -25.17251282 195.11183553 -28.3203125 195.09765625 C-29.57714844 195.09443359 -30.83398438 195.09121094 -32.12890625 195.08789062 C-33.44761719 195.07951172 -34.76632812 195.07113281 -36.125 195.0625 C-37.46484211 195.05748489 -38.804686 195.05292201 -40.14453125 195.04882812 C-43.42973206 195.03701086 -46.71484397 195.02053617 -50 195 C-49.67 193.35 -49.34 191.7 -49 190 C-48.40832031 189.9484375 -47.81664062 189.896875 -47.20703125 189.84375 C-42.4824948 189.1781669 -42.4824948 189.1781669 -38.5703125 186.6484375 C-37.20078992 184.50442629 -36.12881332 182.28188709 -35 180 C-34.44183594 178.88729736 -33.88367188 177.77459473 -33.30859375 176.62817383 C-25.71798125 161.48782163 -18.26225832 146.28452141 -10.95922852 131.0032959 C-10.08190179 129.17104737 -9.19848853 127.34171643 -8.31445312 125.51269531 C-6.94960771 122.66732442 -5.62281706 119.80829286 -4.3125 116.9375 C-3.93230713 116.15544189 -3.55211426 115.37338379 -3.16040039 114.56762695 C-0.47430328 108.49010746 -1.19849484 104.27175834 -3 98 C-3.24242432 97.06438232 -3.48484863 96.12876465 -3.73461914 95.16479492 C-4.57388916 91.97214008 -5.46632096 88.79858858 -6.375 85.625 C-6.71442627 84.4390625 -7.05385254 83.253125 -7.40356445 82.03125 C-10.43812795 71.61251515 -13.76551775 61.29729965 -17.1875 51 C-17.56500397 49.85836395 -17.56500397 49.85836395 -17.95013428 48.69366455 C-23.48205368 31.40029742 -23.48205368 31.40029742 -32.08203125 15.5234375 C-33 14 -33 14 -33 12 C-33.63808594 11.93941406 -34.27617188 11.87882812 -34.93359375 11.81640625 C-35.75988281 11.73261719 -36.58617187 11.64882812 -37.4375 11.5625 C-38.26121094 11.48128906 -39.08492187 11.40007812 -39.93359375 11.31640625 C-42 11 -42 11 -43 10 C-43.125 7 -43.125 7 -43 4 C-41.0121976 2.0121976 -37.22382385 2.46974096 -34.4921875 2.24609375 C-33.35392014 2.14833397 -33.35392014 2.14833397 -32.19265747 2.04859924 C-30.58044506 1.91116647 -28.96804031 1.77597479 -27.35546875 1.64282227 C-24.90573606 1.4400442 -22.45677759 1.22940322 -20.0078125 1.01757812 C-18.44014421 0.88494253 -16.87243693 0.75276686 -15.3046875 0.62109375 C-14.57837128 0.55860947 -13.85205505 0.49612518 -13.10372925 0.43174744 C-8.72880318 0.07499313 -4.39037004 -0.23156251 0 0 Z " fill="#FAFBFA" transform="translate(876,1224)"/>
<path d="M0 0 C1.32 0 2.64 0 4 0 C10.19821164 10.81083425 15.70985688 21.07549358 14 34 C12.984375 36.2578125 12.984375 36.2578125 12 38 C11.01 36.68 10.02 35.36 9 34 C9.04640625 34.88042969 9.0928125 35.76085937 9.140625 36.66796875 C9.17671875 37.82941406 9.2128125 38.99085938 9.25 40.1875 C9.29640625 41.33605469 9.3428125 42.48460937 9.390625 43.66796875 C8.92023617 47.68038546 7.48716441 48.91017652 5 52 C4.37561811 55.37856763 4.37561811 55.37856763 4.25 59.1875 C2.76346622 76.86705416 -4.61199582 94.00466525 -10.26879883 110.69311523 C-12.52350264 117.39414227 -14.47051801 124.10099732 -16.11328125 130.9765625 C-17.07801157 134.26599541 -18.25917356 137.04612824 -20 140 C-24.468162 142.40593339 -29.14309363 143.64006622 -34 145 C-34.33 145.33 -34.66 145.66 -35 146 C-39.64100409 146.04297226 -43.78570466 145.6200657 -47.9375 143.5 C-51.68892644 138.95281644 -52.61328353 133.58860827 -54 127.9609375 C-54.17587646 127.24776367 -54.35175293 126.53458984 -54.53295898 125.79980469 C-54.88170798 124.3675059 -55.22257752 122.93326195 -55.55493164 121.49707031 C-56.34594973 118.16892301 -57.07990664 115.88014005 -59 113 C-61.19547461 104.16411448 -56.35444102 96.27429318 -52.16259766 88.82202148 C-50.97857049 86.9664157 -49.6786099 85.36230512 -48.23046875 83.70703125 C-45.67542481 81.19067009 -45.67542481 81.19067009 -46 77.9375 C-46.3131203 76.62003158 -46.65079204 75.30836584 -47 74 C-47.21398438 72.94554687 -47.42796875 71.89109375 -47.6484375 70.8046875 C-49.13858294 63.37447588 -49.13858294 63.37447588 -53 57 C-52.90528666 54.06388635 -51.9586939 52.95069918 -50.0625 50.6875 C-47.56679864 47.43552551 -46.93104667 44.95694833 -46 41 C-45.30132813 40.87882813 -44.60265625 40.75765625 -43.8828125 40.6328125 C-42.51769531 40.38144531 -42.51769531 40.38144531 -41.125 40.125 C-39.76761719 39.88136719 -39.76761719 39.88136719 -38.3828125 39.6328125 C-35.83494012 39.16955297 -35.83494012 39.16955297 -34 37 C-30.19090105 37.32417863 -28.21627837 37.85581442 -25 40 C-25.495 37.03 -25.495 37.03 -26 34 C-23.69 34 -21.38 34 -19 34 C-18.9071875 32.88625 -18.9071875 32.88625 -18.8125 31.75 C-18 29 -18 29 -15.5625 27.375 C-12.48917776 24.526555 -12.5974183 23.47694186 -12.125 19.4375 C-11.43592272 14.35724399 -11.43592272 14.35724399 -9.3984375 12.6875 C-7.5 11.9375 -7.5 11.9375 -4 11 C-1.70176341 8.70176341 -1.70309616 8.05119118 -1.4375 4.9375 C-1 1 -1 1 0 0 Z " fill="#FDFDFD" transform="translate(1129,947)"/>
<path d="M0 0 C3.34047278 2.38953528 6.24483104 4.93870116 9 8 C9.804375 8.845625 10.60875 9.69125 11.4375 10.5625 C18.05988797 18.751699 23 30.36566958 23 41 C18.97163989 39.55126866 15.64509751 37.58117316 12.0625 35.25 C3.96107679 30.12291639 -4.61974029 25.98443933 -14 23.8125 C-16.94857886 22.89854936 -17.83901403 22.23108034 -19.6328125 19.65625 C-20.63444944 17.74737123 -21.59523978 15.81654272 -22.515625 13.8671875 C-24.40654425 10.21472769 -26.84719884 7.50757003 -29.6796875 4.55859375 C-31 3 -31 3 -31 1 C-33.33294775 0.95758277 -35.66702567 0.95907063 -38 1 C-39.26254923 2.0763491 -39.26254923 2.0763491 -39.5 4.5625 C-38.83580479 9.12884205 -36.68730077 11.03443016 -33.53125 14.265625 C-32 16 -32 16 -32 18 C-32.69150146 17.99476318 -33.38300293 17.98952637 -34.09545898 17.98413086 C-37.20946352 17.963425 -40.32345361 17.95036037 -43.4375 17.9375 C-44.52611328 17.92912109 -45.61472656 17.92074219 -46.73632812 17.91210938 C-48.28803711 17.90727539 -48.28803711 17.90727539 -49.87109375 17.90234375 C-50.82943115 17.89710693 -51.78776855 17.89187012 -52.77514648 17.88647461 C-54.97285339 17.7494687 -54.97285339 17.7494687 -56 19 C-56.04092937 21.33297433 -56.04241723 23.66705225 -56 26 C-55.38181396 26.03963867 -54.76362793 26.07927734 -54.12670898 26.12011719 C-21.70112427 28.29887573 -21.70112427 28.29887573 -16 34 C-17.74843118 35.12743666 -19.4988094 36.2518542 -21.25 37.375 C-22.22453125 38.00148438 -23.1990625 38.62796875 -24.203125 39.2734375 C-26.43521615 40.65134852 -28.63087422 41.88312642 -31 43 C-31.04241723 45.33294775 -31.04092937 47.66702567 -31 50 C-30.67 50.33 -30.34 50.66 -30 51 C-23.70969375 51 -19.85470219 48.21249049 -14.71484375 44.79296875 C-5.7801379 38.89220618 -5.7801379 38.89220618 -1.7421875 39.13671875 C2.03087839 40.32453579 5.14904014 42.23888623 8.5 44.3125 C9.15097656 44.70373047 9.80195312 45.09496094 10.47265625 45.49804688 C14.20178889 47.76942766 17.64896935 50.1838454 21 53 C18.71914023 59.26886611 11.63239883 62.10617657 6 65 C-9.23423486 72.03118532 -27.35026745 70.51139618 -42.79882812 64.88183594 C-62.96974476 56.80094077 -79.97989256 42.57891712 -94.9140625 27.05859375 C-96.93828154 24.95814534 -96.93828154 24.95814534 -99.2734375 23.34765625 C-99.84320312 22.90292969 -100.41296875 22.45820313 -101 22 C-101 21.34 -101 20.68 -101 20 C-99.43383789 18.81420898 -99.43383789 18.81420898 -97.22265625 17.49609375 C-96.40780762 17.00705566 -95.59295898 16.51801758 -94.75341797 16.01416016 C-93.86541504 15.4938623 -92.97741211 14.97356445 -92.0625 14.4375 C-91.15387207 13.9017334 -90.24524414 13.3659668 -89.30908203 12.81396484 C-86.54671322 11.19627461 -83.77545463 9.59511783 -81 8 C-80.23252441 7.55575684 -79.46504883 7.11151367 -78.67431641 6.65380859 C-54.49798074 -7.21211155 -25.26877306 -15.85975025 0 0 Z " fill="#1E4924" transform="translate(1111,465)"/>
<path d="M0 0 C0.90153809 0.00531738 1.80307617 0.01063477 2.73193359 0.01611328 C8.91569676 0.10168296 15.03833223 0.47060475 21.1875 1.125 C21.93894287 1.20331055 22.69038574 1.28162109 23.46459961 1.36230469 C27.02327337 1.79305894 29.02751316 2.22667544 32.0625 4.25 C31.52400661 9.58522686 29.630413 13.37870818 27.125 18 C23.99400536 23.97534893 21.7161875 29.45164995 21.0625 36.25 C17.1875 35.375 17.1875 35.375 16.0625 34.25 C15.92899328 31.89731487 15.83120932 29.54257037 15.75 27.1875 C15.42195096 20.93683589 14.66368107 16.45170599 11.0625 11.25 C5.1439339 6.66311127 -1.7114958 6.5782599 -8.9375 7.25 C-16.5897817 9.11531389 -23.83618355 13.35907144 -28.12890625 20.12890625 C-31.05851215 27.81381448 -28.87366427 36.15283152 -25.79296875 43.41015625 C-19.07811064 57.66155403 -10.83967448 71.19422753 -2.88037109 84.76977539 C31.95736471 144.28140798 31.95736471 144.28140798 25.30859375 170.1875 C21.73503561 180.50176977 15.97982378 188.26547468 6.25 193.5 C-8.0709005 199.91399405 -25.76208233 200.54927918 -40.63671875 195.296875 C-46.68675447 192.75149105 -46.68675447 192.75149105 -47.9375 190.25 C-47.01171875 188.296875 -47.01171875 188.296875 -45.625 186 C-41.39121943 178.96391767 -40.28424632 171.87429906 -39.16992188 163.8828125 C-38.44998139 159.15745728 -37.3577462 155.45677892 -34.9375 151.25 C-33.6175 151.25 -32.2975 151.25 -30.9375 151.25 C-30.85246384 155.41677206 -30.8141643 159.432901 -31.4375 163.5625 C-33.01517198 175.17353193 -33.01517198 175.17353193 -28.60546875 185.625 C-24.02471457 190.0877488 -18.70694037 191.46901668 -12.4375 191.75 C-5.04505208 191.46010008 1.86940571 188.59146842 7.0625 183.25 C11.81377465 177.23276073 12.03904364 169.90352212 11.43554688 162.47436523 C9.92248317 153.45242582 5.82935696 145.18340415 1.5625 137.1875 C1.04131592 136.19943359 0.52013184 135.21136719 -0.0168457 134.19335938 C-4.77526983 125.30316425 -10.08627298 116.82540143 -15.57080078 108.37109375 C-30.82548518 84.69608517 -47.73889249 57.88455311 -42.24609375 28.55859375 C-39.41362277 18.33088474 -34.27925296 10.72363716 -25.09765625 5.12890625 C-17.11279893 0.81233982 -8.96000423 -0.09623521 0 0 Z " fill="#F9FAF9" transform="translate(1108.9375,1221.75)"/>
<path d="M0 0 C5.16797632 3.75777411 10.04302378 7.73767611 12 14 C12.76062815 19.89486817 11.94471054 23.24950175 8.546875 28.1171875 C1.18748834 37.07482479 -8.50985294 40.43239813 -19.375 43.5 C-20.4357373 43.80260742 -21.49647461 44.10521484 -22.58935547 44.41699219 C-35.4681667 48.04006798 -48.24971963 50.87586325 -61.5 52.75 C-62.39605957 52.87793945 -63.29211914 53.00587891 -64.21533203 53.13769531 C-70.17325354 53.92352557 -75.99367324 54.14515827 -82 54 C-81.58065186 53.55551514 -81.16130371 53.11103027 -80.72924805 52.65307617 C-76.53808531 48.14648676 -74.29200741 43.65361828 -72 38 C-70.36647186 34.31799606 -68.68764634 30.65747149 -67 27 C-66.50693359 25.91332031 -66.50693359 25.91332031 -66.00390625 24.8046875 C-63.93594043 20.42849428 -61.45647639 16.78424351 -58.3671875 13.0546875 C-56.78818995 10.97617929 -56.78818995 10.97617929 -56.44921875 7.9609375 C-55 5 -55 5 -53.02246094 3.98974609 C-50.34765077 3.11297368 -47.67438436 2.40759952 -44.9375 1.75 C-44.02033203 1.50765625 -43.10316406 1.2653125 -42.15820312 1.015625 C-39.44624345 0.30832439 -36.72658892 -0.3516621 -34 -1 C-32.80721436 -1.29910278 -32.80721436 -1.29910278 -31.59033203 -1.60424805 C-21.78158606 -3.96849914 -9.03993184 -5.24281211 0 0 Z " fill="#1D4823" transform="translate(1204,715)"/>
<path d="M0 0 C16.19257305 11.35896916 16.19257305 11.35896916 18.140625 17.203125 C17.52058594 17.64140625 16.90054687 18.0796875 16.26171875 18.53125 C10.56656626 22.60987449 5.07204151 26.84529926 -0.359375 31.265625 C-6.24768552 36.02616555 -12.18765415 40.57431366 -18.859375 44.203125 C-19.49488281 44.55181641 -20.13039063 44.90050781 -20.78515625 45.25976562 C-26.93528162 48.3457911 -32.29059227 48.83224073 -39.109375 48.703125 C-40.12136963 48.69249023 -41.13336426 48.68185547 -42.17602539 48.67089844 C-53.20955702 48.39150137 -62.18560584 45.51421395 -71.859375 40.203125 C-68.18339225 36.192962 -64.85799623 33.44388624 -59.859375 31.203125 C-53.41556978 31.55460528 -48.4264707 34.01091979 -42.73242188 36.76367188 C-38.60971946 38.67651075 -35.51370202 39.70610402 -30.859375 39.203125 C-29.44360023 38.01888174 -29.44360023 38.01888174 -29.796875 34.640625 C-29.8175 33.50625 -29.838125 32.371875 -29.859375 31.203125 C-30.52324219 31.02136719 -31.18710938 30.83960938 -31.87109375 30.65234375 C-36.59391113 29.30789209 -40.78772839 28.05327763 -44.859375 25.203125 C-42.60667135 22.95042135 -41.52909685 22.68700073 -38.4921875 21.94921875 C-37.61175781 21.73507324 -36.73132812 21.52092773 -35.82421875 21.30029297 C-34.88707031 21.08260254 -33.94992187 20.86491211 -32.984375 20.640625 C-32.03433594 20.4152002 -31.08429688 20.18977539 -30.10546875 19.95751953 C-24.1396896 18.58917489 -18.37438924 17.63043176 -12.234375 17.5390625 C-9.2467788 17.11647488 -7.33779299 15.87605714 -4.859375 14.203125 C-5.23841708 10.91236504 -5.23841708 10.91236504 -6.859375 8.203125 C-13.24059449 7.82775915 -19.2909805 8.76558497 -25.58984375 9.765625 C-28.40456769 10.14226667 -31.02695139 10.2884711 -33.859375 10.203125 C-33.48683594 9.76742187 -33.11429688 9.33171875 -32.73046875 8.8828125 C-29.45847213 4.84930219 -29.45847213 4.84930219 -29.046875 -0.234375 C-29.315 -1.08 -29.583125 -1.925625 -29.859375 -2.796875 C-32.65144645 -3.21048667 -32.65144645 -3.21048667 -35.859375 -2.796875 C-38.51278884 -0.72800789 -38.51278884 -0.72800789 -40.796875 2.140625 C-41.23306152 2.63989502 -41.66924805 3.13916504 -42.11865234 3.65356445 C-44.65554003 6.59547389 -46.83529046 9.66417786 -48.984375 12.890625 C-53.79630891 19.33745694 -61.71985583 22.0121502 -68.859375 25.203125 C-70.19729707 25.86053412 -71.53366321 26.52142824 -72.859375 27.203125 C-72.37683906 21.86804451 -71.00420992 17.83071008 -68.296875 13.265625 C-67.93827393 12.65589844 -67.57967285 12.04617188 -67.21020508 11.41796875 C-61.55817973 2.12358201 -53.65009956 -5.22816411 -42.95776367 -8.35253906 C-27.97699141 -11.52473284 -12.8254664 -7.88731891 0 0 Z " fill="#1F4A25" transform="translate(1278.859375,514.796875)"/>
<path d="M0 0 C8.1675 -0.0928125 8.1675 -0.0928125 16.5 -0.1875 C18.20220703 -0.21481201 19.90441406 -0.24212402 21.65820312 -0.27026367 C23.03254491 -0.27903909 24.40689459 -0.28668052 25.78125 -0.29296875 C26.82104004 -0.3159906 26.82104004 -0.3159906 27.88183594 -0.33947754 C33.80830239 -0.34259454 39.42097324 0.80268877 44.05859375 4.75390625 C44.74115234 5.64916016 44.74115234 5.64916016 45.4375 6.5625 C45.91058594 7.16191406 46.38367187 7.76132813 46.87109375 8.37890625 C50.1315468 13.0608717 49.50533521 18.49906532 49 24 C47.12886753 28.04164613 44.68072986 30.34047856 41.34765625 33.1640625 C40.71996338 33.69725098 40.09227051 34.23043945 39.44555664 34.77978516 C38.96852295 35.18245605 38.49148926 35.58512695 38 36 C38.42410156 36.63091553 38.84820313 37.26183105 39.28515625 37.91186523 C41.19248152 40.75215552 43.09628424 43.59478931 45 46.4375 C45.66773438 47.43072266 46.33546875 48.42394531 47.0234375 49.44726562 C47.65507813 50.39150391 48.28671875 51.33574219 48.9375 52.30859375 C49.81728516 53.62041626 49.81728516 53.62041626 50.71484375 54.95874023 C52 57 52 57 52 58 C48.17649819 58.61462942 44.80270364 58.82506595 41 58 C38.014068 55.14815777 36.3141438 51.67789448 34.375 48.0625 C30.60556365 41.43641739 30.60556365 41.43641739 24.71679688 36.95458984 C19.51912532 35.85491894 15.45586236 36.4633578 10 37 C10 43.93 10 50.86 10 58 C6.7 58 3.4 58 0 58 C0 38.86 0 19.72 0 0 Z " fill="#F3F5F4" transform="translate(990,1449)"/>
<path d="M0 0 C8.1675 -0.0928125 8.1675 -0.0928125 16.5 -0.1875 C18.20220703 -0.21481201 19.90441406 -0.24212402 21.65820312 -0.27026367 C23.03254491 -0.27903909 24.40689459 -0.28668052 25.78125 -0.29296875 C26.82104004 -0.3159906 26.82104004 -0.3159906 27.88183594 -0.33947754 C33.80830239 -0.34259454 39.42097324 0.80268877 44.05859375 4.75390625 C44.74115234 5.64916016 44.74115234 5.64916016 45.4375 6.5625 C45.91058594 7.16191406 46.38367188 7.76132813 46.87109375 8.37890625 C50.1315468 13.0608717 49.50533521 18.49906532 49 24 C47.12886753 28.04164613 44.68072986 30.34047856 41.34765625 33.1640625 C40.71996338 33.69725098 40.09227051 34.23043945 39.44555664 34.77978516 C38.96852295 35.18245605 38.49148926 35.58512695 38 36 C38.42410156 36.63091553 38.84820313 37.26183105 39.28515625 37.91186523 C41.19248152 40.75215552 43.09628424 43.59478931 45 46.4375 C45.66773438 47.43072266 46.33546875 48.42394531 47.0234375 49.44726562 C47.65507813 50.39150391 48.28671875 51.33574219 48.9375 52.30859375 C49.81728516 53.62041626 49.81728516 53.62041626 50.71484375 54.95874023 C52 57 52 57 52 58 C48.17649819 58.61462942 44.80270364 58.82506595 41 58 C38.014068 55.14815777 36.3141438 51.67789448 34.375 48.0625 C30.60556365 41.43641739 30.60556365 41.43641739 24.71679688 36.95458984 C19.51912532 35.85491894 15.45586236 36.4633578 10 37 C10 43.93 10 50.86 10 58 C6.7 58 3.4 58 0 58 C0 38.86 0 19.72 0 0 Z " fill="#F3F5F4" transform="translate(741,1449)"/>
<path d="M0 0 C3.3 0 6.6 0 10 0 C15.43164073 10.61729975 20.51325441 21.34838223 25.32958984 32.25830078 C26.39051513 34.66012463 27.45855761 37.05869651 28.52734375 39.45703125 C29.21395719 41.0050241 29.90017042 42.55319453 30.5859375 44.1015625 C30.90049896 44.80785797 31.21506042 45.51415344 31.53915405 46.24185181 C33.24107397 50.10784013 34.73311884 53.96343824 36 58 C32.7 58 29.4 58 26 58 C24.02 53.71 22.04 49.42 20 45 C9.77 44.67 -0.46 44.34 -11 44 C-11.495 46.475 -11.495 46.475 -12 49 C-13.21269669 52.06339846 -14.61540165 55.00748098 -16 58 C-19.3 58 -22.6 58 -26 58 C-21.94981821 47.99863512 -17.53407698 38.16863736 -13.09716797 28.33447266 C-11.86854734 25.61069485 -10.64308396 22.88551227 -9.41796875 20.16015625 C-8.63039389 18.41137475 -7.84263986 16.66267393 -7.0546875 14.9140625 C-6.6921286 14.10772369 -6.3295697 13.30138489 -5.95602417 12.47061157 C-4.05712999 8.26640571 -2.0974593 4.11029725 0 0 Z " fill="#F9FAF9" transform="translate(492,1449)"/>
<path d="M0 0 C1.35329147 0.97282063 2.69411955 1.96440643 4 3 C3.65120368 6.25543229 2.97866739 7.01873107 0.4375 9.25 C-0.366875 9.8275 -1.17125 10.405 -2 11 C-2.86625 10.38125 -3.7325 9.7625 -4.625 9.125 C-12.35269897 4.25941176 -20.08206043 4.23451162 -29 5 C-35.68640305 6.78304081 -39.69594439 11.02247242 -43.11328125 16.921875 C-45.18406665 21.7749932 -44.4509789 27.3262316 -42.875 32.25 C-40.64430325 37.49317975 -36.73038184 39.97589646 -31.9375 42.8125 C-24.4450133 45.7197842 -15.16408241 44.78894149 -7.8046875 41.91796875 C-3.57404625 39.7660192 -2.09320314 37.18640627 0 33 C-6.93 33 -13.86 33 -21 33 C-21 30.03 -21 27.06 -21 24 C-10.77 24 -0.54 24 10 24 C10 33.14188146 9.06431286 38.14268129 3.75 45.3125 C-3.2963929 52.1987476 -12.22159376 54.06122989 -21.8125 54.375 C-32.65138371 54.15521474 -40.13758475 51.01972993 -47.89453125 43.3984375 C-54.02287696 36.41735352 -54.9549615 28.96271847 -54.5078125 19.8828125 C-53.41818681 11.55136683 -48.63803122 5.60091237 -42.1640625 0.47265625 C-29.68740624 -8.0177759 -12.87463455 -7.49261519 0 0 Z " fill="#F7F8F7" transform="translate(654,1454)"/>
<path d="M0 0 C14.52 0 29.04 0 44 0 C44 2.97 44 5.94 44 9 C32.45 9 20.9 9 9 9 C9 13.95 9 18.9 9 24 C18.9 24 28.8 24 39 24 C39 26.97 39 29.94 39 33 C29.1 33 19.2 33 9 33 C9 38.28 9 43.56 9 49 C20.55 49 32.1 49 44 49 C44 51.97 44 54.94 44 58 C29.48 58 14.96 58 0 58 C0 38.86 0 19.72 0 0 Z " fill="#F6F7F6" transform="translate(1365,1449)"/>
<path d="M0 0 C2.33172068 1.87675079 3.95137624 3.55630749 5.5625 6.0625 C2.0975 9.0325 2.0975 9.0325 -1.4375 12.0625 C-2.83723958 10.82552083 -4.23697917 9.58854167 -5.63671875 8.3515625 C-9.73807568 5.41566708 -13.45998433 4.78710451 -18.4375 4.8125 C-19.448125 4.80734375 -20.45875 4.8021875 -21.5 4.796875 C-25.66749464 5.17372292 -28.46515826 6.09015826 -31.4375 9.0625 C-32.02152133 11.47667872 -32.02152133 11.47667872 -31.4375 14.0625 C-27.17536207 18.60298163 -22.50002787 19.12872074 -16.625 20.0625 C-8.43491683 21.38170803 -1.78416385 23.13416913 4.5625 28.6875 C7.26871576 33.2542391 7.47488022 36.8754495 6.5625 42.0625 C3.48276445 48.2219711 -1.26104526 52.28506738 -7.81640625 54.515625 C-18.38302138 56.72028389 -29.17512259 55.89116117 -38.4375 50.0625 C-40.85993353 47.85031542 -42.53119875 45.76309344 -44.4375 43.0625 C-42.7875 41.0825 -41.1375 39.1025 -39.4375 37.0625 C-35.53035522 38.90482112 -32.10654682 41.27558575 -28.55859375 43.72265625 C-23.797714 46.72998913 -18.88599475 46.61910882 -13.4375 46.0625 C-10.09444629 45.19061565 -7.22855295 44.1227129 -4.4375 42.0625 C-2.95506925 39.09439266 -2.95506925 39.09439266 -3.4375 36.0625 C-5.48190632 32.69524253 -8.81572484 32.14525549 -12.4375 31.0625 C-15.0619426 30.57210107 -17.67874457 30.1169031 -20.3125 29.6875 C-27.65178896 28.38731133 -33.57464958 27.07216326 -38.875 21.5 C-41.80306574 16.93221745 -42.43824124 12.34846657 -41.4375 7.0625 C-38.63180966 1.7493987 -34.62516614 -1.21087024 -29.125 -3.4375 C-18.85892639 -6.59305541 -9.3288009 -5.25805142 0 0 Z " fill="#F6F7F6" transform="translate(1279.4375,1452.9375)"/>
<path d="M0 0 C11.55 0 23.1 0 35 0 C35 2.97 35 5.94 35 9 C30.71 9 26.42 9 22 9 C22 22.2 22 35.4 22 49 C26.29 49 30.58 49 35 49 C35 51.97 35 54.94 35 58 C23.45 58 11.9 58 0 58 C0 55.03 0 52.06 0 49 C4.29 49 8.58 49 13 49 C13 35.8 13 22.6 13 9 C8.71 9 4.42 9 0 9 C0 6.03 0 3.06 0 0 Z " fill="#F8F9F8" transform="translate(873,1449)"/>
<path d="M0 0 C11.55 0 23.1 0 35 0 C35 2.97 35 5.94 35 9 C30.71 9 26.42 9 22 9 C22 22.2 22 35.4 22 49 C26.29 49 30.58 49 35 49 C35 51.97 35 54.94 35 58 C23.45 58 11.9 58 0 58 C0 55.36 0 52.72 0 50 C4.29 50 8.58 50 13 50 C13 36.47 13 22.94 13 9 C8.71 9 4.42 9 0 9 C0 6.03 0 3.06 0 0 Z " fill="#F6F7F6" transform="translate(1122,1449)"/>
<path d="M0 0 C3.54213083 -0.08118636 7.08238743 -0.14059277 10.625 -0.1875 C11.62402344 -0.21263672 12.62304688 -0.23777344 13.65234375 -0.26367188 C19.16749448 -0.31845814 23.30403164 -0.2598227 28 3 C30.33909307 6.5086396 30.41291057 7.87089433 30 12 C28.6477437 15.13154091 27.79637639 16.60619967 24.71801758 18.12841797 C21.86732503 19.04254465 19.68285473 19.23020883 16.69921875 19.1953125 C15.72275391 19.18886719 14.74628906 19.18242188 13.74023438 19.17578125 C12.73283203 19.15902344 11.72542969 19.14226562 10.6875 19.125 C9.66076172 19.11597656 8.63402344 19.10695313 7.57617188 19.09765625 C5.05068073 19.07416331 2.52531008 19.03829451 0 19 C0 12.73 0 6.46 0 0 Z " fill="#1D4822" transform="translate(1000,1458)"/>
<path d="M0 0 C3.54213083 -0.08118636 7.08238743 -0.14059277 10.625 -0.1875 C11.62402344 -0.21263672 12.62304688 -0.23777344 13.65234375 -0.26367188 C19.16749448 -0.31845814 23.30403164 -0.2598227 28 3 C30.33909307 6.5086396 30.41291057 7.87089433 30 12 C28.6477437 15.13154091 27.79637639 16.60619967 24.71801758 18.12841797 C21.86732503 19.04254465 19.68285473 19.23020883 16.69921875 19.1953125 C15.72275391 19.18886719 14.74628906 19.18242188 13.74023438 19.17578125 C12.73283203 19.15902344 11.72542969 19.14226562 10.6875 19.125 C9.66076172 19.11597656 8.63402344 19.10695313 7.57617188 19.09765625 C5.05068073 19.07416331 2.52531008 19.03829451 0 19 C0 12.73 0 6.46 0 0 Z " fill="#1D4822" transform="translate(751,1458)"/>
<path d="M0 0 C3.30733992 2.20489328 3.76507337 3.1708495 5.26171875 6.71875 C5.85629883 8.11673828 5.85629883 8.11673828 6.46289062 9.54296875 C6.86701172 10.51878906 7.27113281 11.49460937 7.6875 12.5 C8.10322266 13.47582031 8.51894531 14.45164062 8.94726562 15.45703125 C12 22.70539563 12 22.70539563 12 25 C4.74 25 -2.52 25 -10 25 C-9.23055477 21.15277385 -8.51694134 18.59332263 -6.93359375 15.13671875 C-6.53076172 14.25048828 -6.12792969 13.36425781 -5.71289062 12.45117188 C-5.29201172 11.53916016 -4.87113281 10.62714844 -4.4375 9.6875 C-4.01275391 8.75615234 -3.58800781 7.82480469 -3.15039062 6.86523438 C-2.10493657 4.5746328 -1.05468244 2.28636341 0 0 Z " fill="#29522F" transform="translate(496,1460)"/>
<path d="M0 0 C2.8125 0.625 2.8125 0.625 4.8125 2.625 C4.5890878 8.32201107 3.14761001 12.11809458 -0.1875 16.625 C-3.25 17.75 -3.25 17.75 -6.1875 17.625 C-8.125 16.5625 -8.125 16.5625 -9.1875 14.625 C-9.1875 8.61457747 -6.24978404 1.22544785 0 0 Z " fill="#F8FAF9" transform="translate(1213.1875,670.375)"/>
<path d="M0 0 C1 1 1 1 1.3125 3.875 C1 7 1 7 -0.66015625 8.65234375 C-3.47137141 10.27149105 -5.52538595 10.49555869 -8.75 10.6875 C-9.73484375 10.75324219 -10.7196875 10.81898438 -11.734375 10.88671875 C-12.48203125 10.92410156 -13.2296875 10.96148438 -14 11 C-16 8 -16 8 -15.625 4.8125 C-15.41875 3.884375 -15.2125 2.95625 -15 2 C-13.00458132 1.31974363 -11.00382009 0.65509503 -9 0 C-8.319375 -0.226875 -7.63875 -0.45375 -6.9375 -0.6875 C-4.41297517 -1.09468142 -2.45282154 -0.66292474 0 0 Z " fill="#F7F9F7" transform="translate(1186,653)"/>
<path d="M0 0 C3.75 0.5625 3.75 0.5625 5.32421875 2.13671875 C8.01177507 6.17960433 9.69344271 9.60942578 8.75 14.5625 C5.75 16.5625 5.75 16.5625 3.375 16.625 C-0.56385482 15.03070162 -2.44977058 12.35717445 -4.25 8.5625 C-4.625 4.6875 -4.625 4.6875 -4.25 1.5625 C-3.25 0.5625 -3.25 0.5625 0 0 Z " fill="#F9FAF9" transform="translate(1243.25,692.4375)"/>
<path d="M0 0 C1.010625 0.309375 2.02125 0.61875 3.0625 0.9375 C4.0625 3.4375 4.0625 3.4375 4.0625 6.9375 C1.84679267 10.20063261 -0.67936042 12.71551789 -3.9375 14.9375 C-7.375 15 -7.375 15 -9.9375 13.9375 C-10.9375 12.9375 -10.9375 12.9375 -11.4375 10.3125 C-10.79113777 5.94955494 -9.13254101 4.17028306 -5.9609375 1.21875 C-3.9375 -0.0625 -3.9375 -0.0625 0 0 Z " fill="#F8F9F8" transform="translate(1119.9375,676.0625)"/>
<path d="M0 0 C3.375 0 3.375 0 7 1 C9.8071052 4.09501343 10.88002069 6.10872513 11.4375 10.25 C11.293125 11.1575 11.14875 12.065 11 13 C8 15 8 15 5.625 15 C1.77776725 13.53438753 0.24386503 11.39785276 -2 8 C-2.4375 4.75 -2.4375 4.75 -2 2 C-1.34 1.34 -0.68 0.68 0 0 Z " fill="#F8F9F8" transform="translate(1150,672)"/>
<path d="M0 0 C2.1875 0.3125 2.1875 0.3125 4 1 C4.75 3.1875 4.75 3.1875 5 6 C2.8739403 9.38594692 0.84551234 11.75586365 -3 13 C-6.1875 13.1875 -6.1875 13.1875 -9 13 C-10 12 -10 12 -10.1875 9.5625 C-10 7 -10 7 -8 5 C-6.7934375 4.5359375 -6.7934375 4.5359375 -5.5625 4.0625 C-2.96004804 3.19243782 -2.96004804 3.19243782 -1.4375 1.3125 C-0.963125 0.879375 -0.48875 0.44625 0 0 Z " fill="#F5F6F5" transform="translate(1338,731)"/>
<path d="M0 0 C0.66 0 1.32 0 2 0 C2.66 2.31 3.32 4.62 4 7 C3.01 7 2.02 7 1 7 C0.67 4.69 0.34 2.38 0 0 Z " fill="#3C6242" transform="translate(958,495)"/>
</svg>
