<?xml version="1.0" encoding="UTF-8"?>
<svg version="1.1" xmlns="http://www.w3.org/2000/svg" width="2000" height="2000">
<path d="M0 0 C660 0 1320 0 2000 0 C2000 660 2000 1320 2000 2000 C1340 2000 680 2000 0 2000 C0 1340 0 680 0 0 Z " fill="#FEFEFE" transform="translate(0,0)"/>
<path d="M0 0 C2 1.875 2 1.875 3 4 C3 4.66 3 5.32 3 6 C4.1446875 5.2265625 4.1446875 5.2265625 5.3125 4.4375 C6.199375 3.963125 7.08625 3.48875 8 3 C8.99 3.33 9.98 3.66 11 4 C9.35211268 8.69014085 9.35211268 8.69014085 7.4375 10.375 C5.18589594 12.92029154 5.31030744 15.71074113 5 19 C5.99 19 6.98 19 8 19 C10.03299461 24.14228049 10.02584663 26.9224601 8.3125 32.0625 C6.43017665 34.84116781 3.77760826 36.16796051 1 38 C0.67 38.99 0.34 39.98 0 41 C-0.66 41 -1.32 41 -2 41 C-2 42.32 -2 43.64 -2 45 C-0.39125 45.433125 -0.39125 45.433125 1.25 45.875 C4.09400364 46.72820109 6.43508983 47.5636503 9 49 C9 49.99 9 50.98 9 52 C10.03125 52.103125 11.0625 52.20625 12.125 52.3125 C16 53 16 53 18.6875 54.5625 C22.20958078 56.09095015 24.035994 56.10994891 27.8125 56 C33.53379776 55.85873339 37.76957469 56.77048418 43 59 C43.81984375 59.33644531 44.6396875 59.67289062 45.484375 60.01953125 C51.6341759 62.6341759 51.6341759 62.6341759 54 65 C54.268125 65.94875 54.53625 66.8975 54.8125 67.875 C56.26133116 71.68771357 57.62845788 72.753849 61 75 C64.22205218 75.93726324 64.22205218 75.93726324 67.6875 76.4375 C74.91290628 77.82495997 81.23216781 80.03854098 87.0625 84.62109375 C90.16397997 86.82839704 92.30434878 86.57346312 96 86 C98.59020597 84.38251086 100.4240455 82.62258078 102 80 C101.98082606 77.04650188 101.98082606 77.04650188 101 74 C100.53014619 69.9624427 100.49977148 66.84654058 102.625 63.25 C109.24601115 56.97746312 114.40144255 55.71830532 123.2265625 55.765625 C127.04011813 56.08789731 129.64218226 57.20916387 133 59 C133 60.32 133 61.64 133 63 C134.08539062 63.26554687 135.17078125 63.53109375 136.2890625 63.8046875 C137.73440647 64.16133082 139.17971722 64.5181088 140.625 64.875 C141.33785156 65.04902344 142.05070312 65.22304688 142.78515625 65.40234375 C146.91973128 66.42650454 151.02649743 67.44727746 155 69 C155.33 69.66 155.66 70.32 156 71 C157.02996094 70.99097656 158.05992187 70.98195313 159.12109375 70.97265625 C168.39190396 71.09565207 175.77694406 72.52493203 184.20092773 76.47290039 C188.47290131 78.47213591 192.19410514 79.85053437 197 80 C199.20495844 78.87255743 199.20495844 78.87255743 201.125 77.125 C206.49830603 73.55392084 211.59244626 73.19868879 217.875 72.875 C218.80328613 72.81715332 219.73157227 72.75930664 220.68798828 72.69970703 C227.43017475 72.4920472 227.43017475 72.4920472 230.23046875 74.98828125 C230.81441406 75.65214844 231.39835938 76.31601562 232 77 C235.10228732 77.52071688 235.10228732 77.52071688 238.4375 77.3125 C239.54996094 77.28800781 240.66242187 77.26351562 241.80859375 77.23828125 C244.63196531 77.02747872 247.23651333 76.58272822 250 76 C251.21327677 79.1782723 252.39077085 82.36870111 253.5625 85.5625 C253.90474609 86.45775391 254.24699219 87.35300781 254.59960938 88.27539062 C257.39029537 95.97091866 257.14263359 100.42070722 254 108 C253.26934209 110.6542267 252.6357788 113.32064647 252 116 C248 116 248 116 246.18359375 114.75 C242.42919331 110.98720045 240.19808012 107.86157248 238.6171875 102.77734375 C238.04422522 100.82790994 238.04422522 100.82790994 236.375 98.875 C234.53214013 96.36200927 234.34696101 94.05325688 234 91 C233.34 91 232.68 91 232 91 C234.75554475 103.38080177 234.75554475 103.38080177 241.72265625 113.609375 C243.90453585 115.98475462 244.25763689 118.92449569 245 122 C247.1941493 127.73579246 250.06909246 133.20003358 252.8125 138.6875 C253.15571289 139.37465088 253.49892578 140.06180176 253.85253906 140.76977539 C255.53703494 144.12897356 257.24265444 147.47331815 259.00390625 150.79296875 C264.17276055 160.64750761 264.17276055 160.64750761 264.6875 166.1875 C265.45893962 171.84782206 269.53092443 174.57086179 273.67211914 178.01611328 C278.15945379 181.83503416 279.37281075 184.25076518 280 190 C280.66 190.66 281.32 191.32 282 192 C282.28710938 194.29077148 282.28710938 194.29077148 282.34375 197.12109375 C282.37339844 198.13880859 282.40304687 199.15652344 282.43359375 200.20507812 C282.45550781 201.27177734 282.47742188 202.33847656 282.5 203.4375 C282.54336211 205.54056249 282.59507321 207.64347407 282.65625 209.74609375 C282.67494141 210.68122803 282.69363281 211.6163623 282.71289062 212.57983398 C282.84547924 215.25877069 282.84547924 215.25877069 285 218 C286.5159375 218.7425 286.5159375 218.7425 288.0625 219.5 C291 221 291 221 292 224 C292.99 224 293.98 224 295 224 C298.73864969 230.31702879 300.02420362 236.44666572 301.19140625 243.609375 C301.98234963 246.92598782 302.84874753 248.44948461 305 251 C305 251.66 305 252.32 305 253 C305.66 253 306.32 253 307 253 C307.33 253.99 307.66 254.98 308 256 C308.33 255.34 308.66 254.68 309 254 C309.99 254.33 310.98 254.66 312 255 C312 256.32 312 257.64 312 259 C312.99 259.0928125 312.99 259.0928125 314 259.1875 C320.53509545 260.95742168 324.9829662 264.64395494 329 270 C329.99 270.33 330.98 270.66 332 271 C332.33 271.66 332.66 272.32 333 273 C336.84697871 272.44851004 339.15576412 271.45124208 342.25 269.125 C371.59423477 247.93673637 406.73063893 227.53587346 444 228 C442.77841278 190.67840415 438.87985292 152.90003696 413 124 C412.50113281 124.35191406 412.00226562 124.70382812 411.48828125 125.06640625 C392.03024791 138.44598753 373.793891 142.93251594 350.23046875 138.7421875 C332.51230831 134.67150977 316.81961079 125.57665935 303 114 C302.44248047 113.54254395 301.88496094 113.08508789 301.31054688 112.61376953 C292.53695426 105.41042249 284.37257595 97.69267236 276.50341797 89.51220703 C275.0766597 88.07710786 273.55723621 86.73591841 272.03515625 85.40234375 C270 83 270 83 270.11474609 80.55200195 C271.21603359 77.37722033 272.33564229 76.58411527 275.12890625 74.765625 C276.42211792 73.91109741 276.42211792 73.91109741 277.74145508 73.03930664 C278.6723999 72.44883545 279.60334473 71.85836426 280.5625 71.25 C281.99082153 70.32465454 281.99082153 70.32465454 283.44799805 69.38061523 C307.53035277 53.92146006 336.35454018 37.68920586 366.06640625 42.49609375 C368.78131314 43.19556758 371.36899298 44.03231795 374 45 C374.98613281 45.35191406 375.97226563 45.70382812 376.98828125 46.06640625 C393.32515031 52.35620463 404.68956259 63.21025855 412 79 C415.7468692 87.66295833 417.18482057 95.52503982 417.25 104.9375 C417.29641576 111.15824927 417.29641576 111.15824927 419.734375 116.74609375 C421.98195279 118.91099956 421.98195279 118.91099956 424.46484375 120.8671875 C438.40515989 132.59509599 444.50225571 152.99106994 448.49511719 169.99755859 C449.18103814 172.71802456 450.06403394 175.35652829 451 178 C451.42410156 176.90042969 451.84820313 175.80085937 452.28515625 174.66796875 C455.41729171 166.7155696 458.60847277 159.35441442 463.51953125 152.296875 C466.51773845 147.64530288 467.6330427 142.64498095 468.875 137.3125 C472.60371476 122.10299668 479.36311262 107.93525057 492.9296875 99.08984375 C506.14390984 91.22269671 520.85898821 88.11282373 536.12109375 91.87109375 C548.86870705 95.91690234 559.97223465 102.20012428 570 111 C571.46373047 112.28197266 571.46373047 112.28197266 572.95703125 113.58984375 C583.54836687 123.04292312 583.54836687 123.04292312 584.5625 127.4375 C583.7090583 131.32540108 581.09656667 132.80784642 578 135 C576.29060104 136.22768427 574.5823757 137.45700348 572.875 138.6875 C571.91851563 139.37457031 570.96203125 140.06164062 569.9765625 140.76953125 C566.95953334 143.03032344 564.11014893 145.41958912 561.25 147.875 C550.71998746 156.7158514 540.17102742 163.76082201 527 168 C526.01 168.33 525.02 168.66 524 169 C507.3002248 170.46737814 492.12642754 168.40286445 477.35546875 160.171875 C474.99082169 158.77728451 474.99082169 158.77728451 472 159 C461.8010722 178.48678512 455.41779649 197.38708238 454.4375 219.5 C454.39431641 220.4178125 454.35113281 221.335625 454.30664062 222.28125 C454.20166544 224.52072061 454.09950752 226.76028092 454 229 C454.65822754 228.95818604 455.31645508 228.91637207 455.99462891 228.87329102 C500.65121539 226.56030884 546.53775865 263.82377355 577.8515625 291.9765625 C579.60598968 293.62891392 581.17456309 295.30873197 582.75 297.125 C584.86396082 299.29341785 584.86396082 299.29341785 587.75 299 C590.78660874 298.12550336 590.78660874 298.12550336 592.78515625 297.24609375 C601.79962397 293.65072801 613.38033568 293.26488062 622.5625 296.5625 C629.23219578 299.80076797 635.36204584 304.64711431 638.375 311.57421875 C640.72117139 320.68029645 639.58327589 329.85510724 635 338 C624.65782511 354.63093253 605.07155628 361.56845243 587.9375 369.1875 C586.05455834 370.03116844 584.17191214 370.8754966 582.28955078 371.72045898 C577.68207195 373.78700065 573.07126415 375.84598089 568.45928955 377.90246582 C565.04224918 379.42742599 561.62819125 380.95898315 558.21484375 382.4921875 C553.65564152 384.53965294 549.09415076 386.58188572 544.53125 388.62109375 C538.77257983 391.19853776 533.0256826 393.80115655 527.28125 396.41015625 C508.33795073 405.00520078 489.39302883 413.45745528 470 421 C469.27296875 421.28649414 468.5459375 421.57298828 467.796875 421.86816406 C433.53285547 435.28252771 398.78565514 435.6627054 365.12036133 421.0612793 C356.74353015 417.36797788 356.74353015 417.36797788 353.36376953 415.6953125 C352.57470215 415.31117188 351.78563477 414.92703125 350.97265625 414.53125 C350.295979 414.18642578 349.61930176 413.84160156 348.92211914 413.48632812 C346.94476627 412.79367978 346.94476627 412.79367978 344.87670898 413.77929688 C342.86867815 414.99319144 342.86867815 414.99319144 341 417 C340.01 417 339.02 417 338 417 C337.88301758 417.59546631 337.76603516 418.19093262 337.64550781 418.80444336 C336.60673831 422.33759545 334.11183694 424.82141248 331.75 427.5625 C331.27175781 428.13935547 330.79351563 428.71621094 330.30078125 429.31054688 C327.45980996 432.64811071 324.85600067 434.8301599 321 437 C319.97695052 438.65261839 318.97383946 440.31791365 318 442 C317.01 442.33 316.02 442.66 315 443 C314.11588398 444.82900132 314.11588398 444.82900132 313.5625 447.0625 C312.57076673 450.29596367 311.49935587 453.37295583 310.0625 456.4375 C309.76472656 457.07558594 309.46695313 457.71367188 309.16015625 458.37109375 C308 460 308 460 305.91015625 461.01953125 C305.27980469 461.34308594 304.64945313 461.66664063 304 462 C303.31126713 465.31796085 303.31126713 465.31796085 303 469 C302.649375 470.010625 302.29875 471.02125 301.9375 472.0625 C300.86106919 475.43531655 300.4265658 477.48771555 301 481 C302.47772045 482.9214552 304.04204133 484.60523721 305.78515625 486.2890625 C307 488 307 488 306.70703125 489.87890625 C306.47371094 490.57886719 306.24039063 491.27882813 306 492 C304.96443173 501.42367129 306.64442629 510.57247133 311 519 C312.95713115 520.39549828 314.953916 521.73852545 317 523 C318.04451536 526.59052155 318.50309119 528.82108299 317.01660156 532.30444336 C315.78386223 535.57309728 315.74114209 538.20176383 315.734375 541.69140625 C315.73179687 542.96564453 315.72921875 544.23988281 315.7265625 545.55273438 C315.73075195 546.21104248 315.73494141 546.86935059 315.73925781 547.54760742 C315.74998688 549.5600384 315.73932876 551.57158053 315.7265625 553.58398438 C315.72914063 554.85693359 315.73171875 556.12988281 315.734375 557.44140625 C315.73663086 558.60357666 315.73888672 559.76574707 315.74121094 560.96313477 C315.99251631 563.91217965 316.61762095 565.45291936 318 568 C317.125 569.9375 317.125 569.9375 316 572 C316.04125 572.825 316.0825 573.65 316.125 574.5 C316 577 316 577 314.125 579.125 C313.42375 579.74375 312.7225 580.3625 312 581 C311.34 581.99 310.68 582.98 310 584 C309.34 584 308.68 584 308 584 C307.89042969 584.59941406 307.78085938 585.19882812 307.66796875 585.81640625 C306.45571196 589.77928079 303.38055017 591.89666734 300 594 C296.50489336 595.40696288 292.99902207 596.60582959 289.40234375 597.7265625 C284.47393061 599.57118097 280.93859756 601.59210367 278 606 C277.01 606 276.02 606 275 606 C274.896875 606.78375 274.79375 607.5675 274.6875 608.375 C274 611 274 611 271 613 C270.34 613 269.68 613 269 613 C267.365311 614.65448684 267.365311 614.65448684 265.6875 616.75 C263.01290851 619.892645 260.42750797 622.64970882 257 625 C256.34 625 255.68 625 255 625 C255.1546875 626.85625 255.1546875 626.85625 255.3125 628.75 C255.39951172 629.79414062 255.39951172 629.79414062 255.48828125 630.859375 C256.11557768 633.48348526 257.37748605 634.85653181 259 637 C262.58462199 645.52396734 263.84938114 653.79605028 263 663 C262.67 663.66 262.34 664.32 262 665 C262.0928125 666.85625 262.0928125 666.85625 262.1875 668.75 C262.20389637 673.26719871 261.18873553 675.6557164 258 679 C255.91641903 679.92946212 253.84473951 680.54358642 251.6484375 681.16015625 C248.48712947 682.16263593 245.6079519 683.48935991 242.625 684.9375 C241.62726562 685.42089844 240.62953125 685.90429688 239.6015625 686.40234375 C236.97371571 688.01614155 235.638336 689.41989943 234 692 C234.32355469 692.5671875 234.64710938 693.134375 234.98046875 693.71875 C238.38274614 701.3315086 235.15772222 710.44249577 233 718 C232.773125 719.11375 232.54625 720.2275 232.3125 721.375 C230.86349839 724.27300322 229.94087877 724.84232656 227.30078125 726.578125 C222.48484536 730.09483056 219.84721802 734.2797691 216.875 739.375 C212.15835784 747.25692191 207.25989785 754.68679306 201.0625 761.5 C199.11046114 763.65092584 197.17142665 765.79269335 195.3203125 768.03125 C189.12086157 775.50618604 180.1526235 785.29967786 170.0078125 786.29296875 C168.58082031 786.24076172 168.58082031 786.24076172 167.125 786.1875 C166.15820312 786.16042969 165.19140625 786.13335938 164.1953125 786.10546875 C163.10863281 786.05326172 163.10863281 786.05326172 162 786 C162 787.32 162 788.64 162 790 C160.329375 789.938125 160.329375 789.938125 158.625 789.875 C154.95633975 789.58878141 154.95633975 789.58878141 153 792 C149.11226273 791.67602189 145.39803811 791.07237057 141.5625 790.375 C140.2940625 790.189375 140.2940625 790.189375 139 790 C138.67 790.33 138.34 790.66 138 791 C135.0212215 790.99086264 132.05417809 790.86680056 129.078125 790.7421875 C125.54671336 791.03796563 123.97790408 792.16070631 121 794 C117.7734375 794.66015625 117.7734375 794.66015625 114.375 795.0625 C109.38207678 795.64391414 109.38207678 795.64391414 105 798 C102.73828125 797.9765625 102.73828125 797.9765625 100.3125 797.625 C99.10013672 797.45871094 99.10013672 797.45871094 97.86328125 797.2890625 C97.24839844 797.19367187 96.63351562 797.09828125 96 797 C95.67 796.01 95.34 795.02 95 794 C93.35 794 91.7 794 90 794 C90 792.68 90 791.36 90 790 C88.68 790.66 87.36 791.32 86 792 C85.89042969 791.40832031 85.78085937 790.81664062 85.66796875 790.20703125 C84.72957591 785.53032549 83.64806099 782.02965803 81 778 C80.3125 775.6875 80.3125 775.6875 80 774 C81.32 773.67 82.64 773.34 84 773 C83.86493945 766.3206419 83.26196176 761.56583077 79.390625 756.0703125 C75.2790994 749.94922102 72.96122756 742.91195404 70.75 735.9375 C68.24742695 728.70609017 64.26094729 724.39107673 59 719 C50.35699172 709.17666901 49.0846241 695.27887555 47.4921875 682.734375 C47.12717312 680.02102671 47.12717312 680.02102671 45.9609375 677.8125 C44.17645252 672.58961714 44.71836379 666.84416924 44.78515625 661.3671875 C44.67295362 655.06657852 43.54538443 651.50379572 39.77392578 646.48339844 C37.67853517 643.54996694 36.04971101 640.50654177 34.37890625 637.3125 C34.06772858 636.71951111 33.7565509 636.12652222 33.4359436 635.51556396 C32.15156001 633.06370467 30.87578672 630.60751844 29.60717773 628.14746094 C25.05533111 619.32350877 25.05533111 619.32350877 19.0703125 611.43359375 C14.70631484 606.09920271 15.07168371 600.70214901 15.3125 594.0625 C15.31056641 592.94681641 15.30863281 591.83113281 15.30664062 590.68164062 C15.41649095 584.21562294 16.34776893 579.14726466 19.00854492 573.25805664 C20.94927238 568.8380152 21.78651589 564.10719716 22.875 559.41796875 C24.05497406 555.83297812 25.51999644 553.80000402 28 551 C28.495 549.9171875 28.495 549.9171875 29 548.8125 C30 547 30 547 31.9375 546.1875 C34.49996798 544.71213965 35.41700105 543.06323205 36.45703125 540.328125 C37.9430519 533.95641057 38.23985374 527.31439365 35.125 521.5 C34.42375 520.675 33.7225 519.85 33 519 C31.10198766 515.20397531 30.71106461 512.23771905 31 508 C31.33 507.67 31.66 507.34 32 507 C32.44200253 501.47496839 31.38787878 497.95263748 29 493 C28.505 491.80375 28.01 490.6075 27.5 489.375 C26.13621072 486.07726066 26.13621072 486.07726066 24.4375 483.5625 C22.89496497 480.81276365 22.22767827 478.17040376 21.51953125 475.11328125 C19.88973504 468.48380943 17.49741438 464.10517308 13 459 C13 458.34 13 457.68 13 457 C12.401875 456.73960937 11.80375 456.47921875 11.1875 456.2109375 C8.83622528 454.90933899 7.6824774 453.70180804 6 451.625 C3.7921287 448.98130161 1.52913771 446.510436 -0.98046875 444.15625 C-12.57617415 433.24567276 -12.57617415 433.24567276 -14 425 C-13 422 -13 422 -10 420 C-9.26393501 416.43230448 -9.26393501 416.43230448 -9 413 C-7.68 413 -6.36 413 -5 413 C-5.99 411.68 -6.98 410.36 -8 409 C-7.67 408.67 -7.34 408.34 -7 408 C-6.96819819 405.80113168 -7.06800324 403.61880288 -7.16015625 401.421875 C-6.97322508 398.59511096 -6.09634926 396.60432423 -5 394 C-2.69926372 385.87695432 -2.69926372 385.87695432 -4.5 377.9375 C-7.14006854 374.83541946 -9.22606324 373.45811193 -13 372 C-13 371.01 -13 370.02 -13 369 C-13.99 369 -14.98 369 -16 369 C-16 368.01 -16 367.02 -16 366 C-16.99 366 -17.98 366 -19 366 C-19.33 366.99 -19.66 367.98 -20 369 C-21.22976563 368.96519531 -21.22976563 368.96519531 -22.484375 368.9296875 C-23.56203125 368.91164063 -24.6396875 368.89359375 -25.75 368.875 C-27.35101562 368.84019531 -27.35101562 368.84019531 -28.984375 368.8046875 C-32.00561625 369.00036375 -33.38381598 369.63244926 -36 371 C-40.5979043 371.31570118 -44.02701855 370.83059392 -47.5625 367.8125 C-49.20159367 364.6055776 -49.33058394 362.55377738 -49 359 C-49.99 358.67 -50.98 358.34 -52 358 C-52.45375 357.21625 -52.9075 356.4325 -53.375 355.625 C-55.29127426 352.52948004 -56.75632623 351.60107368 -60 350 C-70.49722578 348.58310305 -81.9348574 351.01773552 -92 354 C-92.66 354.66 -93.32 355.32 -94 356 C-96.9631639 356.83598863 -99.94888749 357.46714945 -102.95703125 358.12109375 C-106.05862164 359.0169318 -108.27190929 360.30903468 -111 362 C-113.0625 362.625 -113.0625 362.625 -115 363 C-117.79592544 363.60396155 -119.04671624 364.03353986 -121.4375 365.75 C-125.51507151 367.73905927 -128.79591801 366.2475792 -133 365 C-134.85229104 364.45195372 -136.70652211 363.91042774 -138.5625 363.375 C-139.40941406 363.11460937 -140.25632812 362.85421875 -141.12890625 362.5859375 C-148.68526522 361.04382342 -155.33109556 362.49809353 -162.6875 364.3125 C-163.61111328 364.52583984 -164.53472656 364.73917969 -165.48632812 364.95898438 C-170.23164658 366.10346363 -173.82270375 367.43459524 -178 370 C-188.25085508 370.76923219 -196.35651716 366.23986145 -204 360 C-205.74858437 358.5815864 -207.49862536 357.1649669 -209.25 355.75 C-210.05953125 355.08484375 -210.8690625 354.4196875 -211.703125 353.734375 C-213.89038101 351.96862183 -213.89038101 351.96862183 -216.16796875 350.9375 C-218 350 -218 350 -220.0625 347.25 C-223.09557983 343.3759728 -227.10144476 341.59683496 -231.40625 339.375 C-235.89697573 336.99437431 -239.22817813 334.24911155 -242 330 C-242.484375 327.703125 -242.484375 327.703125 -242.75 325.25 C-243.76548129 319.43249701 -246.57069015 315.8125705 -251 312 C-251.71929687 311.66226562 -252.43859375 311.32453125 -253.1796875 310.9765625 C-253.78039062 310.65429688 -254.38109375 310.33203125 -255 310 C-255.75 306.875 -255.75 306.875 -256 304 C-257.98 303.67 -259.96 303.34 -262 303 C-262 302.01 -262 301.02 -262 300 C-262.99 299.67 -263.98 299.34 -265 299 C-265 297.02 -265 295.04 -265 293 C-263.02 293 -261.04 293 -259 293 C-259 292.34 -259 291.68 -259 291 C-259.74765625 291.16757812 -260.4953125 291.33515625 -261.265625 291.5078125 C-262.74289062 291.81332031 -262.74289062 291.81332031 -264.25 292.125 C-265.22453125 292.33382813 -266.1990625 292.54265625 -267.203125 292.7578125 C-270.23442766 293.0202996 -271.48017346 292.61988849 -274 291 C-274 290.34 -274 289.68 -274 289 C-275.2065625 288.62875 -275.2065625 288.62875 -276.4375 288.25 C-279 287 -279 287 -279.875 285.375 C-280.02613766 282.50338453 -279.69166865 279.83714362 -279.25390625 277 C-278.71056671 272.72015622 -279.1373392 269.82335637 -281 266 C-282.86342722 263.81249848 -284.5644384 262.62370773 -287 261 C-285.56770833 260.15364583 -284.13541667 259.30729167 -282.703125 258.4609375 C-277.98313587 254.41213949 -276.41027797 249.71220324 -275.375 243.75 C-275.13702267 242.41921645 -274.89874094 241.0884873 -274.66015625 239.7578125 C-274.44230469 238.51773438 -274.22445313 237.27765625 -274 236 C-273.60890797 234.20729241 -273.21380742 232.4154485 -272.8125 230.625 C-271.93553407 226.1658512 -271.18371825 221.51149269 -272 217 C-272.76183594 216.13761719 -272.76183594 216.13761719 -273.5390625 215.2578125 C-275.733365 211.86661772 -275.07190802 208.60088384 -274.6875 204.75 C-274.62626953 204.00492188 -274.56503906 203.25984375 -274.50195312 202.4921875 C-274.3492857 200.66017845 -274.17660246 198.82985684 -274 197 C-274.99 197 -275.98 197 -277 197 C-277.33 195.68 -277.66 194.36 -278 193 C-278.99 193 -279.98 193 -281 193 C-281.29128045 187.36857798 -281.11798003 183.89968291 -278 179 C-277.34 178.38125 -276.68 177.7625 -276 177.125 C-273.72273305 174.70540387 -272.9698912 172.3779809 -271.90234375 169.2734375 C-269.55337764 163.35526313 -265.92716176 158.06035275 -261.875 153.1875 C-259.17442166 149.75930469 -258.14156349 146.510812 -257 142.3125 C-255.38301387 136.47787504 -254.03950934 134.25468312 -249 131 C-245.49681152 127.99438532 -244.1926202 125.27572511 -242.5625 121 C-240.77646997 117.26557358 -239.87800266 115.42239047 -236.109375 113.609375 C-233.88580177 113.0297706 -231.65036827 112.49411778 -229.40625 112 C-224.50051466 110.55978412 -221.09035995 107.77528148 -217.14453125 104.609375 C-215 103 -215 103 -213 103 C-212.505 101.515 -212.505 101.515 -212 100 C-211.54625 99.566875 -211.0925 99.13375 -210.625 98.6875 C-207.52359967 95.46681504 -206.09129013 92.18677171 -205.75 87.75 C-205.82792253 85.04048882 -205.82792253 85.04048882 -207 83 C-207.41309455 78.88494271 -207.7412561 75.224684 -205.5625 71.625 C-205.046875 71.08875 -204.53125 70.5525 -204 70 C-203.505 68.515 -203.505 68.515 -203 67 C-202.34 66.67 -201.68 66.34 -201 66 C-200.979375 65.01 -200.95875 64.02 -200.9375 63 C-200.31749088 58.11992824 -197.32818171 55.46205372 -193.87109375 52.1875 C-190.72245576 49.78853773 -187.45521373 48.12931314 -183.875 46.5 C-177.46167542 43.53738307 -173.24154899 40.39703915 -170 34 C-168.76747162 30.59978677 -167.729228 27.22393636 -166.82421875 23.72265625 C-166 21 -166 21 -164 19 C-161.23497486 19 -159.55532268 19.46735494 -157.54125977 21.39916992 C-156.74933228 22.21285034 -156.74933228 22.21285034 -155.94140625 23.04296875 C-151.5556405 26.89323969 -147.73673467 26.67717695 -142.125 26.3125 C-140.41940623 26.24270264 -138.71367701 26.17611482 -137.0078125 26.11328125 C-135.88850342 26.04814331 -135.88850342 26.04814331 -134.74658203 25.98168945 C-133 26 -133 26 -132 27 C-127.59577037 27.75550138 -123.5811311 28.05777948 -119.76953125 25.5078125 C-118.42716286 24.25632011 -117.10631986 22.98131986 -115.80859375 21.68359375 C-113.42224421 19.4621755 -111.13636141 18.76666612 -108 18 C-104.34070389 16.6770704 -101.17517312 14.99127746 -97.875 12.9375 C-91.59025863 9.03102702 -86.57331093 8.73744335 -79.25 8.37890625 C-75.85686422 8.23290927 -75.85686422 8.23290927 -73 6 C-65.25447925 4.5917235 -56.98332661 4.20333468 -49.25 5.75 C-45.27549648 6.05573104 -43.52892933 4.97976817 -40.28515625 2.8125 C-37.41609622 1.79238977 -35.14609553 2.22506311 -32.18286133 2.68945312 C-28.56563413 3.20406145 -24.96082377 3.22391726 -21.3125 3.25 C-20.21325195 3.2809375 -20.21325195 3.2809375 -19.09179688 3.3125 C-11.6875056 3.36591238 -7.55367258 -0.852834 0 0 Z " fill="#1B4721" transform="translate(726,404)"/>
<path d="M0 0 C2.96184708 2.75758177 4.49746527 5.37823551 5.16796875 9.37890625 C5.24619148 16.77095458 4.2059636 21.68138611 -0.30078125 27.58203125 C-5.2875708 32.6586223 -10.73657818 36.31295537 -17.05078125 39.51953125 C-18.3804895 40.20486938 -18.3804895 40.20486938 -19.73706055 40.90405273 C-32.22262537 47.21175053 -45.09900951 52.7092951 -57.90516663 58.32557678 C-66.31630547 62.01847823 -74.69409306 65.78447451 -83.06838989 69.56002808 C-85.60999416 70.70554973 -88.15243479 71.8491967 -90.69506836 72.99243164 C-98.41001669 76.46319201 -106.11737185 79.94889351 -113.8046875 83.48046875 C-139.10976274 95.0877518 -164.79622658 106.42927924 -192.30078125 111.58203125 C-193.18121094 111.76507812 -194.06164063 111.948125 -194.96875 112.13671875 C-219.30917365 115.38971792 -239.18572004 109.52030202 -261.06054688 99.59277344 C-264.12229518 98.21138307 -267.20875769 96.89405206 -270.30078125 95.58203125 C-265.64405264 89.50952068 -261.38008341 86.39686023 -254.359375 83.2734375 C-251.06990719 81.4543576 -249.26445559 79.63772298 -246.86328125 76.76953125 C-246.07953125 75.8878125 -245.29578125 75.00609375 -244.48828125 74.09765625 C-243.22103906 72.64032773 -241.97709773 71.16056833 -240.80078125 69.62890625 C-238.02937521 66.52613645 -235.9764196 65.66752636 -231.8125 65.140625 C-229.6255207 65.02067289 -227.44291745 64.95470457 -225.25317383 64.9074707 C-197.3940209 64.22797917 -152.03805815 58.86916052 -131.5703125 37.80078125 C-130.42441104 36.43982265 -129.35137445 35.01784196 -128.30078125 33.58203125 C-125.9765625 33.765625 -125.9765625 33.765625 -123.30078125 34.58203125 C-121.71875 36.8671875 -121.71875 36.8671875 -120.48828125 39.64453125 C-120.06933594 40.56363281 -119.65039062 41.48273437 -119.21875 42.4296875 C-118.91582031 43.13996094 -118.61289063 43.85023438 -118.30078125 44.58203125 C-115.82578125 44.08703125 -115.82578125 44.08703125 -113.30078125 43.58203125 C-113.81441932 39.8153521 -114.56347176 36.94082961 -116.30078125 33.58203125 C-116.30078125 32.59203125 -116.30078125 31.60203125 -116.30078125 30.58203125 C-115.46160156 30.37449219 -114.62242187 30.16695312 -113.7578125 29.953125 C-104.99938725 27.70954125 -96.44516759 25.0513938 -87.88793945 22.13256836 C-82.06229769 20.14745619 -76.20765113 18.31081353 -70.30078125 16.58203125 C-67.01506696 24.01060268 -67.01506696 24.01060268 -66.30078125 27.58203125 C-64.65078125 27.58203125 -63.00078125 27.58203125 -61.30078125 27.58203125 C-61.09211948 22.46981786 -61.81391722 18.45824281 -63.30078125 13.58203125 C-54.64656182 9.44768065 -45.9231631 5.49927349 -37.11328125 1.70703125 C-36.20489502 1.31394775 -35.29650879 0.92086426 -34.3605957 0.51586914 C-33.50167725 0.14840576 -32.64275879 -0.21905762 -31.7578125 -0.59765625 C-30.9944458 -0.92491699 -30.2310791 -1.25217773 -29.44458008 -1.58935547 C-20.29722757 -5.1249567 -8.41850506 -5.20988034 0 0 Z " fill="#FDFDFD" transform="translate(1350.30078125,713.41796875)"/>
<path d="M0 0 C0.67546875 0.37350586 1.3509375 0.74701172 2.046875 1.13183594 C24.47471498 13.6021303 44.43503201 29.35692255 63 47 C60.52047381 49.89278055 57.97718013 51.03997573 54.46875 52.453125 C52.80271729 53.12939941 52.80271729 53.12939941 51.10302734 53.81933594 C49.31952881 54.52751465 49.31952881 54.52751465 47.5 55.25 C46.27619629 55.74016602 45.05239258 56.23033203 43.79150391 56.73535156 C40.19953084 58.1701632 36.60022984 59.58603124 33 61 C31.64986816 61.53560547 31.64986816 61.53560547 30.27246094 62.08203125 C-2.46103395 75 -2.46103395 75 -13 75 C-13.0825 73.700625 -13.165 72.40125 -13.25 71.0625 C-14.2858673 62.13164406 -18.3316697 55.00018718 -25 49 C-33.15915174 43.31025525 -41.37854673 41.59023584 -51.1875 41.5625 C-52.61606323 41.55669922 -52.61606323 41.55669922 -54.07348633 41.55078125 C-63.51244171 41.70037097 -72.18693496 43.78174453 -81.17260742 46.54101562 C-83 47 -83 47 -86 47 C-87.125 39.375 -87.125 39.375 -86 36 C-91.22701855 35.69252832 -93.62783864 36.29342392 -98 39 C-100.96281993 39.85398927 -103.9762788 40.4051696 -107 41 C-108.45862195 41.35297613 -109.91695822 41.70713498 -111.375 42.0625 C-115.73895432 43.05953702 -120.05384652 43.35883008 -124.51953125 43.55859375 C-127.42132698 44.0749763 -128.68477129 45.24042618 -131 47 C-133.18359375 47.36328125 -133.18359375 47.36328125 -135.4375 47.3125 C-136.17871094 47.30863281 -136.91992188 47.30476562 -137.68359375 47.30078125 C-144.13627417 46.46291212 -149.01026433 42.41718006 -154.20898438 38.80859375 C-157.51683857 36.54907489 -160.67925761 34.65996913 -164.35546875 33.0546875 C-167.58693461 31.52708546 -167.89770344 31.22164256 -169.5 27.75 C-169.665 26.8425 -169.83 25.935 -170 25 C-155.79143719 14.06371226 -140.69949619 4.91012228 -124.875 -3.5 C-124.13024414 -3.89711182 -123.38548828 -4.29422363 -122.61816406 -4.70336914 C-113.32650875 -9.54510519 -103.98883512 -12.73421946 -93.8125 -15.1875 C-92.77158203 -15.44724609 -91.73066406 -15.70699219 -90.65820312 -15.97460938 C-59.20224328 -23.70378808 -27.84927483 -15.6723215 0 0 Z " fill="#FCFDFC" transform="translate(1239,661)"/>
<path d="M0 0 C9.60733677 17.62769582 18.8913441 35.40287156 28.05189514 53.26560974 C30.92239082 58.85896296 33.82977539 64.43245427 36.75 70 C43.21974075 82.35340045 49.55580084 94.77533392 55.90649414 107.19018555 C62.53021073 120.13784823 69.1785742 133.07257845 75.84643555 145.99755859 C76.34947205 146.97288292 76.34947205 146.97288292 76.8626709 147.96791077 C77.75671567 149.70116531 78.65116834 151.43420943 79.5456543 153.16723633 C80.71154308 155.43814577 81.86080936 157.71567218 83 160 C83.76271577 149.91090871 84.21393227 139.84868915 84.44555664 129.73470306 C84.50174039 127.28344277 84.56195643 124.83230721 84.62304688 122.38116455 C84.75218889 117.17085809 84.87633013 111.96043877 85 106.75 C85.14373543 100.71212935 85.28966965 94.67432206 85.43969727 88.63660431 C85.49783494 86.26036674 85.55275022 83.88407088 85.60742188 81.50775146 C85.81606975 72.84275284 86.17429807 64.19769853 86.65342331 55.54339981 C86.95324501 50.08031028 87.16999073 44.62827302 87.203125 39.15625 C87.20882507 38.36899536 87.21452515 37.58174072 87.22039795 36.77062988 C87.2296292 35.15487938 87.23629106 33.53911191 87.24023438 31.92333984 C87.25022293 29.44467908 87.28154925 26.96675899 87.3125 24.48828125 C87.31900821 22.89844229 87.32426715 21.3085976 87.328125 19.71875 C87.3466452 18.61738708 87.3466452 18.61738708 87.36553955 17.49377441 C87.35268053 14.5834937 87.3434735 12.51533947 85.70214844 10.05273438 C83.01870365 8.39309382 80.09104929 8.39340627 77 8 C76.01 7.01 76.01 7.01 75 6 C75.375 3.375 75.375 3.375 76 1 C79.90520265 0.05626917 83.38688564 -0.04984848 87.39453125 0.12109375 C89.19760742 0.19360352 89.19760742 0.19360352 91.03710938 0.26757812 C92.90592773 0.35168945 92.90592773 0.35168945 94.8125 0.4375 C96.07771484 0.48970703 97.34292969 0.54191406 98.64648438 0.59570312 C101.76458806 0.72513384 104.88235178 0.86009129 108 1 C108.5625 2.89453125 108.5625 2.89453125 109 5 C108 6.6875 108 6.6875 106 8 C104.845 8.103125 103.69 8.20625 102.5 8.3125 C100.7675 8.6528125 100.7675 8.6528125 99 9 C96.07781756 13.46282 95.60869548 17.11927656 95.54553223 22.38298035 C95.53283499 23.10469541 95.52013776 23.82641048 95.50705576 24.5699957 C95.46815775 26.97661533 95.44994749 29.38293737 95.43164062 31.78979492 C95.40779952 33.51979874 95.38263454 35.24978474 95.35624695 36.97975159 C95.30217359 40.69883724 95.2570937 44.41788452 95.21891785 48.13716698 C95.15817139 54.01539191 95.07523235 59.89317534 94.9888916 65.77107239 C94.79347228 79.30478786 94.62692904 92.8388297 94.46092987 106.37293243 C94.30842675 118.7861275 94.1498607 131.19916145 93.96735334 143.61195642 C93.88223876 149.45837217 93.81147881 155.30473494 93.75157928 161.15146101 C93.71147459 164.78238717 93.65923698 168.41306424 93.60364723 172.04378319 C93.58034359 173.73081172 93.56215031 175.41791952 93.5493679 177.10506058 C93.53127259 179.40312324 93.49515638 181.70021347 93.45446777 183.99797058 C93.43900658 185.28529681 93.42354538 186.57262304 93.40761566 187.89895916 C93 191 93 191 91.68180084 192.90393543 C88.82971374 194.76269988 86.03287753 194.55220247 82.6875 194.625 C81.39199219 194.67914062 80.09648438 194.73328125 78.76171875 194.7890625 C73.52622871 193.69086002 71.87081578 191.34391438 69 187 C66.85329932 183.58603853 64.87884253 180.09664635 62.9375 176.5625 C62.37659668 175.55461426 61.81569336 174.54672852 61.23779297 173.50830078 C59.48202079 170.34418663 57.73955499 167.17305442 56 164 C55.4642334 163.02756348 54.9284668 162.05512695 54.37646484 161.05322266 C46.26183221 146.30776164 38.49039136 131.39074031 30.7951355 116.4238739 C28.7213555 112.39299126 26.63296293 108.37001444 24.53515625 104.3515625 C17.06295286 90.02983933 9.77081273 75.62823975 2.59619141 61.15551758 C2.245793 60.45045578 1.89539459 59.74539398 1.53437805 59.01896667 C0.87926086 57.7005272 0.22580811 56.38125875 -0.4256134 55.06098938 C-2.14281434 51.60765478 -3.99828818 48.29475543 -6 45 C-6.3534199 55.5618997 -6.6849679 66.12438968 -7 76.6875 C-7.0237545 77.4835968 -7.047509 78.2796936 -7.07198334 79.09991455 C-7.83064542 104.73626624 -8.1829357 130.35258923 -8.125 156 C-8.12243195 157.14518412 -8.12243195 157.14518412 -8.11981201 158.31350327 C-8.09753351 167.54244959 -8.05642141 176.7711939 -8 186 C-4.7 187.32 -1.4 188.64 2 190 C1.34 191.32 0.68 192.64 0 194 C-10.23 194 -20.46 194 -31 194 C-31.33 192.68 -31.66 191.36 -32 190 C-30.82630859 189.49339844 -30.82630859 189.49339844 -29.62890625 188.9765625 C-28.61699219 188.53054688 -27.60507812 188.08453125 -26.5625 187.625 C-25.55316406 187.18414063 -24.54382813 186.74328125 -23.50390625 186.2890625 C-20.87856453 185.24923714 -20.87856453 185.24923714 -20 183 C-19.76504317 179.90540426 -19.59294506 176.83017963 -19.46484375 173.73046875 C-19.42168533 172.71931503 -19.37852692 171.70816132 -19.33406067 170.66636658 C-19.19207185 167.17371352 -19.06276514 163.6807922 -18.9375 160.1875 C-18.89330933 158.9695575 -18.84911865 157.75161499 -18.80358887 156.49676514 C-17.80590989 127.63153514 -17.7744701 98.75444583 -17.75368118 69.87488174 C-17.74999363 66.11851317 -17.74266403 62.36216593 -17.73458862 58.60580444 C-17.72285253 52.61779603 -17.7225268 46.62989073 -17.73129845 40.64187813 C-17.73333609 38.40055971 -17.73217981 36.15923593 -17.72770119 33.91792107 C-17.72260797 30.824247 -17.73018855 27.73085989 -17.74121094 24.63720703 C-17.73513022 23.27419102 -17.73513022 23.27419102 -17.72892666 21.88363934 C-17.64967479 14.89932026 -17.64967479 14.89932026 -21 9 C-22.99603206 8.79111292 -24.99742941 8.63224523 -27 8.5 C-32.88888889 8.11111111 -32.88888889 8.11111111 -34 7 C-34.125 4.5 -34.125 4.5 -34 2 C-32.36845345 0.36845345 -30.4749777 0.77587707 -28.22265625 0.68359375 C-26.73862305 0.62075195 -26.73862305 0.62075195 -25.22460938 0.55664062 C-24.18111328 0.51732422 -23.13761719 0.47800781 -22.0625 0.4375 C-20.54946289 0.37272461 -20.54946289 0.37272461 -19.00585938 0.30664062 C-12.6671248 0.04949943 -6.34362617 -0.05532998 0 0 Z " fill="#1E4924" transform="translate(597,1224)"/>
<path d="M0 0 C1.32 0.66 2.64 1.32 4 2 C3.6452187 4.57216446 3.1957002 5.79677287 1.375 7.6875 C-1.68895472 9.38073813 -4.55256493 9.55311027 -8 10 C-10.36445893 11.92596038 -10.36445893 11.92596038 -10.22705078 15.35494995 C-10.22675199 16.82635229 -10.21525398 18.29777573 -10.1953125 19.76904297 C-10.19239197 20.57291946 -10.18947144 21.37679596 -10.1864624 22.20503235 C-10.17883205 23.95927234 -10.16657976 25.71349675 -10.15032959 27.46767807 C-10.12471714 30.27317106 -10.11174216 33.07847334 -10.10205078 35.88406372 C-10.07533358 42.877499 -10.02779983 49.87076198 -9.97924805 56.86407471 C-9.45083975 134.13105507 -9.45083975 134.13105507 -20 165 C-20.38027344 166.11503906 -20.76054688 167.23007813 -21.15234375 168.37890625 C-23.70942644 175.42926524 -26.75412943 181.81128892 -31 188 C-31.44988281 188.65871094 -31.89976562 189.31742188 -32.36328125 189.99609375 C-36.86185946 195.88859761 -43.08282933 198.69427644 -50 201 C-61.81802843 201.95991975 -72.02308598 200.69090243 -81.375 193 C-99.61352187 175.25995863 -98.62216329 141.60306481 -99.0546875 118.01794434 C-99.51935377 83.34354382 -98.8893878 48.66247024 -98 14 C-99.299375 14.020625 -100.59875 14.04125 -101.9375 14.0625 C-103.29165633 14.08399454 -104.64756083 14.07148199 -106 14 C-107 13 -107 13 -107.125 9.5 C-107 6 -107 6 -106 5 C-104.14264335 5.09709622 -102.28861991 5.25706593 -100.4375 5.4375 C-86.08121645 6.57011663 -71.4258523 6.65018977 -57.09765625 5.12109375 C-56.40542969 5.08113281 -55.71320312 5.04117187 -55 5 C-54 6 -54 6 -53.8125 8.4375 C-54 11 -54 11 -56 13 C-59.26948106 13.5551949 -62.53859198 13.89235626 -65.8359375 14.2421875 C-69.43920923 15.10519332 -70.71103055 16.14692433 -73 19 C-79.79880659 32.59761317 -75.1503031 59.27448909 -75.13037109 74.44848633 C-75.12473236 78.77520805 -75.12802598 83.10186747 -75.13380814 87.42858696 C-75.15297028 104.31900999 -75.06566516 121.19843023 -74.5546875 138.08203125 C-74.51594513 139.37485519 -74.47720276 140.66767914 -74.43728638 141.99967957 C-74.14480011 159.20679404 -74.14480011 159.20679404 -71.1875 176.0625 C-70.87167969 177.24972656 -70.55585937 178.43695312 -70.23046875 179.66015625 C-68.36189805 184.73199101 -65.86849126 189.35017542 -61 192 C-55.62158842 192.83148146 -50.61389359 192.71728604 -45.625 190.5 C-26.59017427 172.37159454 -23.61965358 138.22813798 -22.89227295 113.30947876 C-22.83706703 109.56415147 -22.80966091 105.81992963 -22.796875 102.07421875 C-22.79006436 100.68433612 -22.78320687 99.29445372 -22.77630615 97.90457153 C-22.76075198 94.2479211 -22.75416697 90.59131618 -22.75161743 86.93463516 C-22.75053604 85.4322313 -22.748803 83.92982776 -22.74642944 82.42742538 C-22.71198314 60.17245704 -23.04294092 38.09667643 -26 16 C-29.14930893 14.95023036 -31.38814456 14.89868405 -34.6875 14.9375 C-35.68136719 14.94652344 -36.67523437 14.95554687 -37.69921875 14.96484375 C-38.45847656 14.97644531 -39.21773437 14.98804688 -40 15 C-40.38063221 12.6739143 -40.71269945 10.33944736 -41 8 C-39.25938652 6.25938652 -36.79366472 6.58098029 -34.41796875 6.3515625 C-33.25716797 6.23296875 -32.09636719 6.114375 -30.90039062 5.9921875 C-28.46844536 5.7516795 -26.03616085 5.51457183 -23.60351562 5.28125 C-11.01136505 4.70110067 -11.01136505 4.70110067 0 0 Z " fill="#1F4A25" transform="translate(1053,1219)"/>
<path d="M0 0 C0.68676819 -0.00136459 1.37353638 -0.00272919 2.08111572 -0.00413513 C4.42781922 -0.00621138 6.77440228 0.00030706 9.12109375 0.0078125 C9.93540863 0.00903107 10.74972351 0.01024963 11.5887146 0.01150513 C29.44034655 0.04202439 47.29073755 0.28405376 65.14033127 0.53897858 C67.37602049 0.5703817 69.61172646 0.60016047 71.84744263 0.62957764 C75.40213914 0.6767738 78.95672261 0.72917855 82.51128387 0.78562737 C84.48023561 0.81586281 86.44925604 0.84151373 88.41827393 0.86708069 C89.59484558 0.88701584 90.77141724 0.90695099 91.98364258 0.92749023 C93.53260979 0.95080666 93.53260979 0.95080666 95.11286926 0.97459412 C97.55859375 1.1328125 97.55859375 1.1328125 99.55859375 2.1328125 C99.11482732 6.21546364 98.37315544 9.90603884 97.12109375 13.8203125 C95.3357846 19.50004603 94.41755376 25.25146281 93.55859375 31.1328125 C92.23859375 31.4628125 90.91859375 31.7928125 89.55859375 32.1328125 C89.52121094 31.25238281 89.48382812 30.37195312 89.4453125 29.46484375 C89.37957031 28.30339844 89.31382812 27.14195313 89.24609375 25.9453125 C89.18808594 24.79675781 89.13007812 23.64820313 89.0703125 22.46484375 C88.29244996 17.39983039 86.6295546 14.93603313 82.55859375 11.8828125 C72.38940712 5.95078697 56.10502228 7.9953538 44.62109375 7.8203125 C43.58509033 7.7905835 42.54908691 7.76085449 41.48168945 7.73022461 C35.8314171 7.57541675 35.8314171 7.57541675 30.9296875 10.02734375 C28.31375322 14.04440523 28.35240961 17.38582937 28.26147461 22.07080078 C28.24182144 22.89039276 28.22216827 23.70998474 28.20191956 24.55441284 C28.1379141 27.270567 28.0806583 29.98682013 28.0234375 32.703125 C27.98044059 34.58357682 27.93702409 36.46401909 27.89320374 38.3444519 C27.7788708 43.29933045 27.67025482 48.25431863 27.56280518 53.20935059 C27.45220545 58.2633431 27.33623222 63.31721194 27.22070312 68.37109375 C26.99472306 78.29155267 26.77477879 88.21213563 26.55859375 98.1328125 C27.92371849 97.88773705 27.92371849 97.88773705 29.31642151 97.63771057 C33.15743075 97.03955661 36.90049305 97.05345031 40.7734375 97.09765625 C42.36263668 97.09394445 43.95183194 97.08801689 45.54101562 97.08007812 C48.02146669 97.06952092 50.49903489 97.0703579 52.97924805 97.10864258 C62.55251481 97.57630367 62.55251481 97.57630367 71.17626953 94.28955078 C73.08783475 92.1504129 73.08783475 92.1504129 74.46704102 89.84985352 C74.82725342 89.28322998 75.18746582 88.71660645 75.55859375 88.1328125 C76.21859375 88.1328125 76.87859375 88.1328125 77.55859375 88.1328125 C77.55859375 96.0528125 77.55859375 103.9728125 77.55859375 112.1328125 C73.08637153 109.89670139 73.08637153 109.89670139 70.93359375 107.0703125 C68.88739978 104.12456537 68.88739978 104.12456537 66.55859375 103.1328125 C63.56889086 103.04576104 60.6027442 103.01731105 57.61328125 103.03515625 C56.72826935 103.0365712 55.84325745 103.03798615 54.931427 103.03944397 C52.09878184 103.0450511 49.26621511 103.05760479 46.43359375 103.0703125 C44.51562614 103.07532658 42.59765729 103.07988965 40.6796875 103.08398438 C35.97262593 103.09502284 31.26562315 103.11229225 26.55859375 103.1328125 C26.84349247 118.50453913 27.15460236 133.87556379 27.49542236 149.24615479 C27.55108188 151.78955263 27.60402875 154.33298484 27.65576172 156.87646484 C27.73058049 160.48331664 27.8285002 164.08920416 27.93359375 167.6953125 C27.95220459 168.67677246 27.97081543 169.65823242 27.98999023 170.66943359 C28.18527256 176.43466511 29.12555567 180.8760295 31.55859375 186.1328125 C38.08656755 191.60219596 47.77983069 190.34809352 55.80859375 190.3828125 C56.98550781 190.4034375 58.16242188 190.4240625 59.375 190.4453125 C68.00033014 190.48368994 75.44896861 189.6916357 82.87109375 185.0703125 C88.66896416 178.73310531 91.08033354 171.46482459 92.55859375 163.1328125 C94.20859375 163.4628125 95.85859375 163.7928125 97.55859375 164.1328125 C97.28505037 168.80464542 96.9442109 173.4690485 96.55859375 178.1328125 C96.50477539 178.81617676 96.45095703 179.49954102 96.39550781 180.20361328 C96.22572959 182.22512522 96.02199604 184.24048613 95.80859375 186.2578125 C95.63070312 188.08699219 95.63070312 188.08699219 95.44921875 189.953125 C94.27701303 194.13810508 93.34314244 194.96793587 89.55859375 197.1328125 C85.59005232 197.68017028 81.66285916 197.57290229 77.6640625 197.48828125 C76.48507889 197.48024979 75.30609528 197.47221832 74.09138489 197.46394348 C70.30916383 197.43496769 66.5279615 197.37892554 62.74609375 197.3203125 C57.82298361 197.26321333 52.89983193 197.21675903 47.9765625 197.17578125 C46.76515594 197.16545868 45.55374939 197.15513611 44.30563354 197.14450073 C36.336331 197.0964627 28.38580278 197.19552301 20.421875 197.49609375 C19.48200241 197.52769089 18.54212982 197.55928802 17.57377625 197.59184265 C11.94670953 197.84101527 6.58688843 198.57056891 1.07121277 199.71769714 C-1.47988583 200.1391698 -3.86076915 200.20388198 -6.44140625 200.1328125 C-6.77140625 198.8128125 -7.10140625 197.4928125 -7.44140625 196.1328125 C-3.99689888 193.83647426 -1.50328342 193.59264765 2.55859375 193.1328125 C3.24548174 160.92914036 3.66772732 128.73362637 3.68197632 96.52263641 C3.68357102 94.16639265 3.68711179 91.81015917 3.69116211 89.45391846 C5.77805572 47.05944785 5.77805572 47.05944785 -1.44140625 6.1328125 C-4.08140625 5.8028125 -6.72140625 5.4728125 -9.44140625 5.1328125 C-9.06640625 3.1953125 -9.06640625 3.1953125 -8.44140625 1.1328125 C-5.59014921 -0.29281602 -3.19115755 0.00297544 0 0 Z " fill="#1F4A25" transform="translate(720.44140625,1218.8671875)"/>
<path d="M0 0 C2 2 2 2 2 6 C0.00820797 7.36935702 -2.04941692 8.27230625 -4.25 9.265625 C-6.39849307 11.02659341 -6.39849307 11.02659341 -6.3671875 14.69140625 C-6.14773394 18.82819955 -5.29201555 22.72265757 -4.125 26.6875 C-3.91157959 27.43298096 -3.69815918 28.17846191 -3.47827148 28.9465332 C-1.22517743 36.59733288 1.34921267 44.14497556 3.9375 51.6875 C4.54730713 53.4667688 4.54730713 53.4667688 5.16943359 55.28198242 C8.19120914 63.96375299 11.5255525 72.49220184 15 81 C19.34060349 71.53059756 23.67350478 62.05774915 27.99365234 52.57899475 C29.92789865 48.33814296 31.8761306 44.10441324 33.84375 39.87890625 C34.56275599 38.31522185 35.28153835 36.75143458 36 35.1875 C36.31904297 34.51605957 36.63808594 33.84461914 36.96679688 33.15283203 C38.72218291 29.29240165 39.53551467 26.23598122 39 22 C37.94661498 20.17118338 37.94661498 20.17118338 36.4375 18.8125 C35.633125 17.884375 34.82875 16.95625 34 16 C34.33 15.01 34.66 14.02 35 13 C35.71285156 13.16113281 36.42570313 13.32226562 37.16015625 13.48828125 C44.09163574 14.73728237 50.39314949 14.40249109 57 12 C59.33212027 11.92477031 61.6685311 11.90674124 64 12 C63.67 13.65 63.34 15.3 63 17 C61.989375 17 60.97875 17 59.9375 17 C55.55826889 17.71014559 53.74021068 19.78809654 50.96508789 23.11425781 C46.48722427 29.69002474 43.48314438 37.13247625 40.25 44.375 C39.45854927 46.12801149 38.66655298 47.88077676 37.87402344 49.63330078 C36.30086497 53.12107753 34.73829935 56.61333623 33.18359375 60.109375 C31.53770618 63.80739984 29.86314341 67.49080768 28.16827393 71.16659546 C26.84049617 74.05970396 25.54675 76.9678815 24.25 79.875 C23.77852539 80.88739746 23.30705078 81.89979492 22.82128906 82.94287109 C22.41104492 83.88727051 22.00080078 84.83166992 21.578125 85.8046875 C21.22137695 86.59858887 20.86462891 87.39249023 20.49707031 88.21044922 C19.74878078 92.40983831 20.89246259 95.93479502 22 100 C22.17496002 100.68725159 22.34992004 101.37450317 22.53018188 102.08258057 C25.68678991 114.35772201 29.67497041 126.33983138 33.8125 138.3125 C34.11992126 139.20676697 34.42734253 140.10103394 34.74407959 141.0223999 C38.26461586 151.26135962 41.80299313 161.4938889 45.625 171.625 C45.91866455 172.40915283 46.2123291 173.19330566 46.51489258 174.0012207 C48.2972702 178.60877348 50.32579106 182.83656093 53 187 C54.65583225 187.69313908 56.32110979 188.36474424 58 189 C58.875 191.5625 58.875 191.5625 59 194 C56.9431054 196.0568946 52.64444002 195.25747076 49.80859375 195.31640625 C48.98875504 195.33718735 48.16891632 195.35796844 47.32423401 195.37937927 C44.69541099 195.44496494 42.06648496 195.50380126 39.4375 195.5625 C37.65949439 195.60567667 35.88149935 195.64929067 34.10351562 195.69335938 C29.73578366 195.80065543 25.36794773 195.90189704 21 196 C20.67 194.02 20.34 192.04 20 190 C21.65 189.34 23.3 188.68 25 188 C24.42363104 181.99320151 23.14243187 176.64315746 21.26953125 170.91796875 C20.86017586 169.63748405 20.86017586 169.63748405 20.44255066 168.33113098 C19.57246277 165.6144162 18.69276149 162.90093328 17.8125 160.1875 C17.24087851 158.40971663 16.66991002 156.63172316 16.09960938 154.85351562 C15.24974694 152.2045989 14.3987668 149.55607818 13.54348755 146.90890503 C12.09890907 142.4371509 10.67021588 137.96127232 9.27099609 133.47509766 C8.99591721 132.59461258 8.72083832 131.7141275 8.43742371 130.80696106 C7.91386024 129.12735749 7.39284824 127.44695591 6.87471008 125.76567078 C5.97015021 122.09370556 5.97015021 122.09370556 4 119 C3.63318115 119.88163818 3.2663623 120.76327637 2.88842773 121.67163086 C-0.66811262 130.07295339 -4.56702723 138.25331854 -8.71484375 146.37890625 C-9.21899811 147.3690976 -9.72315247 148.35928894 -10.24258423 149.37948608 C-12.33874997 153.49014233 -14.43919416 157.59839796 -16.55786133 161.69750977 C-18.12287677 164.73084089 -19.67009251 167.772717 -21.21484375 170.81640625 C-21.93655006 172.19621422 -21.93655006 172.19621422 -22.6728363 173.60389709 C-25.23908689 178.69546739 -26.59697884 182.28411031 -26 188 C-24.02 188.66 -22.04 189.32 -20 190 C-20 191.32 -20 192.64 -20 194 C-22.81824192 195.40912096 -25.17251282 195.11183553 -28.3203125 195.09765625 C-29.57714844 195.09443359 -30.83398438 195.09121094 -32.12890625 195.08789062 C-33.44761719 195.07951172 -34.76632812 195.07113281 -36.125 195.0625 C-37.46484211 195.05748489 -38.804686 195.05292201 -40.14453125 195.04882812 C-43.42973206 195.03701086 -46.71484397 195.02053617 -50 195 C-49.67 193.35 -49.34 191.7 -49 190 C-48.40832031 189.9484375 -47.81664062 189.896875 -47.20703125 189.84375 C-42.4824948 189.1781669 -42.4824948 189.1781669 -38.5703125 186.6484375 C-37.20078992 184.50442629 -36.12881332 182.28188709 -35 180 C-34.44183594 178.88729736 -33.88367188 177.77459473 -33.30859375 176.62817383 C-25.71798125 161.48782163 -18.26225832 146.28452141 -10.95922852 131.0032959 C-10.08190179 129.17104737 -9.19848853 127.34171643 -8.31445312 125.51269531 C-6.94960771 122.66732442 -5.62281706 119.80829286 -4.3125 116.9375 C-3.93230713 116.15544189 -3.55211426 115.37338379 -3.16040039 114.56762695 C-0.47430328 108.49010746 -1.19849484 104.27175834 -3 98 C-3.24242432 97.06438232 -3.48484863 96.12876465 -3.73461914 95.16479492 C-4.57388916 91.97214008 -5.46632096 88.79858858 -6.375 85.625 C-6.71442627 84.4390625 -7.05385254 83.253125 -7.40356445 82.03125 C-10.43812795 71.61251515 -13.76551775 61.29729965 -17.1875 51 C-17.56500397 49.85836395 -17.56500397 49.85836395 -17.95013428 48.69366455 C-23.48205368 31.40029742 -23.48205368 31.40029742 -32.08203125 15.5234375 C-33 14 -33 14 -33 12 C-33.63808594 11.93941406 -34.27617188 11.87882812 -34.93359375 11.81640625 C-35.75988281 11.73261719 -36.58617187 11.64882812 -37.4375 11.5625 C-38.26121094 11.48128906 -39.08492187 11.40007812 -39.93359375 11.31640625 C-42 11 -42 11 -43 10 C-43.125 7 -43.125 7 -43 4 C-41.0121976 2.0121976 -37.22382385 2.46974096 -34.4921875 2.24609375 C-33.35392014 2.14833397 -33.35392014 2.14833397 -32.19265747 2.04859924 C-30.58044506 1.91116647 -28.96804031 1.77597479 -27.35546875 1.64282227 C-24.90573606 1.4400442 -22.45677759 1.22940322 -20.0078125 1.01757812 C-18.44014421 0.88494253 -16.87243693 0.75276686 -15.3046875 0.62109375 C-14.57837128 0.55860947 -13.85205505 0.49612518 -13.10372925 0.43174744 C-8.72880318 0.07499313 -4.39037004 -0.23156251 0 0 Z " fill="#1F4A25" transform="translate(876,1224)"/>
<path d="M0 0 C1.32 0 2.64 0 4 0 C10.19821164 10.81083425 15.70985688 21.07549358 14 34 C12.984375 36.2578125 12.984375 36.2578125 12 38 C11.01 36.68 10.02 35.36 9 34 C9.04640625 34.88042969 9.0928125 35.76085937 9.140625 36.66796875 C9.17671875 37.82941406 9.2128125 38.99085938 9.25 40.1875 C9.29640625 41.33605469 9.3428125 42.48460937 9.390625 43.66796875 C8.92023617 47.68038546 7.48716441 48.91017652 5 52 C4.37561811 55.37856763 4.37561811 55.37856763 4.25 59.1875 C2.76346622 76.86705416 -4.61199582 94.00466525 -10.26879883 110.69311523 C-12.52350264 117.39414227 -14.47051801 124.10099732 -16.11328125 130.9765625 C-17.07801157 134.26599541 -18.25917356 137.04612824 -20 140 C-24.468162 142.40593339 -29.14309363 143.64006622 -34 145 C-34.33 145.33 -34.66 145.66 -35 146 C-39.64100409 146.04297226 -43.78570466 145.6200657 -47.9375 143.5 C-51.68892644 138.95281644 -52.61328353 133.58860827 -54 127.9609375 C-54.17587646 127.24776367 -54.35175293 126.53458984 -54.53295898 125.79980469 C-54.88170798 124.3675059 -55.22257752 122.93326195 -55.55493164 121.49707031 C-56.34594973 118.16892301 -57.07990664 115.88014005 -59 113 C-61.19547461 104.16411448 -56.35444102 96.27429318 -52.16259766 88.82202148 C-50.97857049 86.9664157 -49.6786099 85.36230512 -48.23046875 83.70703125 C-45.67542481 81.19067009 -45.67542481 81.19067009 -46 77.9375 C-46.3131203 76.62003158 -46.65079204 75.30836584 -47 74 C-47.21398438 72.94554687 -47.42796875 71.89109375 -47.6484375 70.8046875 C-49.13858294 63.37447588 -49.13858294 63.37447588 -53 57 C-52.90528666 54.06388635 -51.9586939 52.95069918 -50.0625 50.6875 C-47.56679864 47.43552551 -46.93104667 44.95694833 -46 41 C-45.30132813 40.87882813 -44.60265625 40.75765625 -43.8828125 40.6328125 C-42.51769531 40.38144531 -42.51769531 40.38144531 -41.125 40.125 C-39.76761719 39.88136719 -39.76761719 39.88136719 -38.3828125 39.6328125 C-35.83494012 39.16955297 -35.83494012 39.16955297 -34 37 C-30.19090105 37.32417863 -28.21627837 37.85581442 -25 40 C-25.495 37.03 -25.495 37.03 -26 34 C-23.69 34 -21.38 34 -19 34 C-18.9071875 32.88625 -18.9071875 32.88625 -18.8125 31.75 C-18 29 -18 29 -15.5625 27.375 C-12.48917776 24.526555 -12.5974183 23.47694186 -12.125 19.4375 C-11.43592272 14.35724399 -11.43592272 14.35724399 -9.3984375 12.6875 C-7.5 11.9375 -7.5 11.9375 -4 11 C-1.70176341 8.70176341 -1.70309616 8.05119118 -1.4375 4.9375 C-1 1 -1 1 0 0 Z " fill="#1C4822" transform="translate(1129,947)"/>
<path d="M0 0 C3.34047278 2.38953528 6.24483104 4.93870116 9 8 C9.804375 8.845625 10.60875 9.69125 11.4375 10.5625 C18.05988797 18.751699 23 30.36566958 23 41 C18.97163989 39.55126866 15.64509751 37.58117316 12.0625 35.25 C3.96107679 30.12291639 -4.61974029 25.98443933 -14 23.8125 C-16.94857886 22.89854936 -17.83901403 22.23108034 -19.6328125 19.65625 C-20.63444944 17.74737123 -21.59523978 15.81654272 -22.515625 13.8671875 C-24.40654425 10.21472769 -26.84719884 7.50757003 -29.6796875 4.55859375 C-31 3 -31 3 -31 1 C-33.33294775 0.95758277 -35.66702567 0.95907063 -38 1 C-38.33 1.33 -38.66 1.66 -39 2 C-38.88382108 7.8089459 -37.1673866 10.51965189 -33.27734375 14.51953125 C-32 16 -32 16 -32 18 C-32.69150146 17.99476318 -33.38300293 17.98952637 -34.09545898 17.98413086 C-37.20946352 17.963425 -40.32345361 17.95036037 -43.4375 17.9375 C-44.52611328 17.92912109 -45.61472656 17.92074219 -46.73632812 17.91210938 C-48.28803711 17.90727539 -48.28803711 17.90727539 -49.87109375 17.90234375 C-50.82943115 17.89710693 -51.78776855 17.89187012 -52.77514648 17.88647461 C-54.97285339 17.7494687 -54.97285339 17.7494687 -56 19 C-56.04092937 21.33297433 -56.04241723 23.66705225 -56 26 C-55.38181396 26.03963867 -54.76362793 26.07927734 -54.12670898 26.12011719 C-21.70112427 28.29887573 -21.70112427 28.29887573 -16 34 C-17.74843118 35.12743666 -19.4988094 36.2518542 -21.25 37.375 C-22.22453125 38.00148438 -23.1990625 38.62796875 -24.203125 39.2734375 C-26.43521615 40.65134852 -28.63087422 41.88312642 -31 43 C-31.04241723 45.33294775 -31.04092937 47.66702567 -31 50 C-30.67 50.33 -30.34 50.66 -30 51 C-23.70969375 51 -19.85470219 48.21249049 -14.71484375 44.79296875 C-5.7801379 38.89220618 -5.7801379 38.89220618 -1.7421875 39.13671875 C2.03087839 40.32453579 5.14904014 42.23888623 8.5 44.3125 C9.15097656 44.70373047 9.80195312 45.09496094 10.47265625 45.49804688 C14.20178889 47.76942766 17.64896935 50.1838454 21 53 C18.71914023 59.26886611 11.63239883 62.10617657 6 65 C-9.23423486 72.03118532 -27.35026745 70.51139618 -42.79882812 64.88183594 C-62.96974476 56.80094077 -79.97989256 42.57891712 -94.9140625 27.05859375 C-96.93828154 24.95814534 -96.93828154 24.95814534 -99.2734375 23.34765625 C-99.84320312 22.90292969 -100.41296875 22.45820313 -101 22 C-101 21.34 -101 20.68 -101 20 C-99.43383789 18.81420898 -99.43383789 18.81420898 -97.22265625 17.49609375 C-96.40780762 17.00705566 -95.59295898 16.51801758 -94.75341797 16.01416016 C-93.86541504 15.4938623 -92.97741211 14.97356445 -92.0625 14.4375 C-91.15387207 13.9017334 -90.24524414 13.3659668 -89.30908203 12.81396484 C-86.54671322 11.19627461 -83.77545463 9.59511783 -81 8 C-80.23252441 7.55575684 -79.46504883 7.11151367 -78.67431641 6.65380859 C-54.49798074 -7.21211155 -25.26877306 -15.85975025 0 0 Z " fill="#FBFCFB" transform="translate(1111,465)"/>
<path d="M0 0 C0.90153809 0.00531738 1.80307617 0.01063477 2.73193359 0.01611328 C8.91569676 0.10168296 15.03833223 0.47060475 21.1875 1.125 C21.93894287 1.20331055 22.69038574 1.28162109 23.46459961 1.36230469 C27.02327337 1.79305894 29.02751316 2.22667544 32.0625 4.25 C31.52400661 9.58522686 29.630413 13.37870818 27.125 18 C23.99400536 23.97534893 21.7161875 29.45164995 21.0625 36.25 C17.1875 35.375 17.1875 35.375 16.0625 34.25 C15.92899328 31.89731487 15.83120932 29.54257037 15.75 27.1875 C15.42195096 20.93683589 14.66368107 16.45170599 11.0625 11.25 C5.15826442 6.67421742 -1.72515993 6.55264791 -8.9375 7.25 C-16.09786144 9.22703828 -22.6485002 12.35863183 -27.3125 18.25 C-30.32195749 24.21812245 -29.77937396 30.80808435 -28.23046875 37.140625 C-22.35207568 53.96119543 -11.84390997 69.4813833 -2.88037109 84.76977539 C31.95736471 144.28140798 31.95736471 144.28140798 25.30859375 170.1875 C21.51195067 181.14565415 15.41373461 188.62211156 5.125 194.0625 C-8.47609282 200.30831906 -26.5459094 200.27250088 -40.63671875 195.296875 C-46.68675447 192.75149105 -46.68675447 192.75149105 -47.9375 190.25 C-47.01171875 188.296875 -47.01171875 188.296875 -45.625 186 C-41.39121943 178.96391767 -40.28424632 171.87429906 -39.16992188 163.8828125 C-38.44998139 159.15745728 -37.3577462 155.45677892 -34.9375 151.25 C-33.6175 151.25 -32.2975 151.25 -30.9375 151.25 C-30.85246384 155.41677206 -30.8141643 159.432901 -31.4375 163.5625 C-33.01517198 175.17353193 -33.01517198 175.17353193 -28.60546875 185.625 C-24.02471457 190.0877488 -18.70694037 191.46901668 -12.4375 191.75 C-5.04505208 191.46010008 1.86940571 188.59146842 7.0625 183.25 C11.81377465 177.23276073 12.03904364 169.90352212 11.43554688 162.47436523 C9.92249502 153.45249648 5.82947743 145.18328382 1.5625 137.1875 C1.03841553 136.19435791 0.51433105 135.20121582 -0.02563477 134.17797852 C-4.27997466 126.23167227 -8.97038716 118.63510024 -13.85546875 111.06640625 C-47.74919732 58.45312884 -47.74919732 58.45312884 -42.25390625 28.52734375 C-39.3758479 18.31680479 -34.28282167 10.72581172 -25.09765625 5.12890625 C-17.11279893 0.81233982 -8.96000423 -0.09623521 0 0 Z " fill="#204B26" transform="translate(1108.9375,1221.75)"/>
<path d="M0 0 C5.18166911 3.76773051 10.00028076 7.73421303 12 14 C12.76933775 19.93489121 11.3709264 24.18980166 8 29 C0.41135193 37.26020985 -8.8127277 40.51791001 -19.375 43.5 C-20.4357373 43.80260742 -21.49647461 44.10521484 -22.58935547 44.41699219 C-35.4681667 48.04006798 -48.24971963 50.87586325 -61.5 52.75 C-62.39605957 52.87793945 -63.29211914 53.00587891 -64.21533203 53.13769531 C-70.17325354 53.92352557 -75.99367324 54.14515827 -82 54 C-81.58065186 53.55551514 -81.16130371 53.11103027 -80.72924805 52.65307617 C-76.53808531 48.14648676 -74.29200741 43.65361828 -72 38 C-70.36647186 34.31799606 -68.68764634 30.65747149 -67 27 C-66.50693359 25.91332031 -66.50693359 25.91332031 -66.00390625 24.8046875 C-63.93594043 20.42849428 -61.45647639 16.78424351 -58.3671875 13.0546875 C-56.78818995 10.97617929 -56.78818995 10.97617929 -56.44921875 7.9609375 C-55 5 -55 5 -53.02246094 3.98974609 C-50.34765077 3.11297368 -47.67438436 2.40759952 -44.9375 1.75 C-44.02033203 1.50765625 -43.10316406 1.2653125 -42.15820312 1.015625 C-39.44624345 0.30832439 -36.72658892 -0.3516621 -34 -1 C-32.80721436 -1.29910278 -32.80721436 -1.29910278 -31.59033203 -1.60424805 C-21.78158606 -3.96849914 -9.03993184 -5.24281211 0 0 Z " fill="#FCFDFC" transform="translate(1204,715)"/>
<path d="M0 0 C16.19257305 11.35896916 16.19257305 11.35896916 18.140625 17.203125 C17.52058594 17.64140625 16.90054687 18.0796875 16.26171875 18.53125 C10.56656626 22.60987449 5.07204151 26.84529926 -0.359375 31.265625 C-6.24768552 36.02616555 -12.18765415 40.57431366 -18.859375 44.203125 C-19.49488281 44.55181641 -20.13039063 44.90050781 -20.78515625 45.25976562 C-26.93528162 48.3457911 -32.29059227 48.83224073 -39.109375 48.703125 C-40.12136963 48.69249023 -41.13336426 48.68185547 -42.17602539 48.67089844 C-53.20955702 48.39150137 -62.18560584 45.51421395 -71.859375 40.203125 C-68.18339225 36.192962 -64.85799623 33.44388624 -59.859375 31.203125 C-53.41556978 31.55460528 -48.4264707 34.01091979 -42.73242188 36.76367188 C-38.60971946 38.67651075 -35.51370202 39.70610402 -30.859375 39.203125 C-29.44360023 38.01888174 -29.44360023 38.01888174 -29.796875 34.640625 C-29.8175 33.50625 -29.838125 32.371875 -29.859375 31.203125 C-30.52324219 31.02136719 -31.18710938 30.83960938 -31.87109375 30.65234375 C-36.59391113 29.30789209 -40.78772839 28.05327763 -44.859375 25.203125 C-42.60667135 22.95042135 -41.52909685 22.68700073 -38.4921875 21.94921875 C-37.61175781 21.73507324 -36.73132812 21.52092773 -35.82421875 21.30029297 C-34.88707031 21.08260254 -33.94992187 20.86491211 -32.984375 20.640625 C-32.03433594 20.4152002 -31.08429688 20.18977539 -30.10546875 19.95751953 C-24.1396896 18.58917489 -18.37438924 17.63043176 -12.234375 17.5390625 C-9.2467788 17.11647488 -7.33779299 15.87605714 -4.859375 14.203125 C-5.23841708 10.91236504 -5.23841708 10.91236504 -6.859375 8.203125 C-13.40352712 7.61319095 -19.68214278 8.53220185 -26.09765625 9.765625 C-28.73960056 10.18415083 -31.19031999 10.28091167 -33.859375 10.203125 C-33.4984375 9.76742187 -33.1375 9.33171875 -32.765625 8.8828125 C-29.65360499 4.88905349 -28.21771712 2.46471959 -28.859375 -2.796875 C-33.05674958 -3.20323847 -35.11556091 -3.38904842 -38.484375 -0.70703125 C-39.268125 0.23269531 -40.051875 1.17242188 -40.859375 2.140625 C-41.28959961 2.63916992 -41.71982422 3.13771484 -42.16308594 3.65136719 C-44.69420106 6.62168853 -46.90974216 9.73699517 -49.109375 12.953125 C-53.5673988 18.89006362 -60.25406396 21.27585742 -66.859375 24.203125 C-68.864368 25.19307604 -70.86609416 26.18979806 -72.859375 27.203125 C-72.37683906 21.86804451 -71.00420992 17.83071008 -68.296875 13.265625 C-67.93827393 12.65589844 -67.57967285 12.04617188 -67.21020508 11.41796875 C-61.55817973 2.12358201 -53.65009956 -5.22816411 -42.95776367 -8.35253906 C-27.97699141 -11.52473284 -12.8254664 -7.88731891 0 0 Z " fill="#FAFBFA" transform="translate(1278.859375,514.796875)"/>
<path d="M0 0 C5.424375 -0.0825 10.84875 -0.165 16.4375 -0.25 C18.97715454 -0.30462402 18.97715454 -0.30462402 21.56811523 -0.36035156 C38.18796861 -0.57036473 38.18796861 -0.57036473 44.59936523 5.51904297 C49.10667728 10.68709224 49.35304078 14.35268254 49.2734375 21.0234375 C48.73795149 26.85258526 45.42601204 29.71569533 41.25 33.375 C40.17281969 34.2575637 39.0915857 35.13531695 38 36 C38.50789063 36.76183594 39.01578125 37.52367187 39.5390625 38.30859375 C40.96674685 40.45012028 42.39379988 42.59206778 43.8203125 44.734375 C45.16437871 46.74806559 46.51248329 48.75907566 47.8671875 50.765625 C48.40601563 51.56484375 48.94484375 52.3640625 49.5 53.1875 C49.9846875 53.90292969 50.469375 54.61835937 50.96875 55.35546875 C52 57 52 57 52 58 C47.98260673 59.11896447 44.98790649 59.31782853 41 58 C35.80075282 52.95612511 32.02403252 45.93596477 28.73046875 39.53125 C25.76363115 36.90596706 22.13239392 37.32012262 18.3125 37.25 C15.569375 37.1675 12.82625 37.085 10 37 C10 43.93 10 50.86 10 58 C6.7 58 3.4 58 0 58 C0 38.86 0 19.72 0 0 Z " fill="#27512D" transform="translate(990,1449)"/>
<path d="M0 0 C5.424375 -0.0825 10.84875 -0.165 16.4375 -0.25 C18.97715454 -0.30462402 18.97715454 -0.30462402 21.56811523 -0.36035156 C38.18796861 -0.57036473 38.18796861 -0.57036473 44.59936523 5.51904297 C49.10667728 10.68709224 49.35304078 14.35268254 49.2734375 21.0234375 C48.73795149 26.85258526 45.42601204 29.71569533 41.25 33.375 C40.17281969 34.2575637 39.0915857 35.13531695 38 36 C38.50789062 36.76183594 39.01578125 37.52367187 39.5390625 38.30859375 C40.96674685 40.45012028 42.39379988 42.59206778 43.8203125 44.734375 C45.16437871 46.74806559 46.51248329 48.75907566 47.8671875 50.765625 C48.40601563 51.56484375 48.94484375 52.3640625 49.5 53.1875 C49.9846875 53.90292969 50.469375 54.61835937 50.96875 55.35546875 C52 57 52 57 52 58 C47.98260673 59.11896447 44.98790649 59.31782853 41 58 C35.80075282 52.95612511 32.02403252 45.93596477 28.73046875 39.53125 C25.76363115 36.90596706 22.13239392 37.32012262 18.3125 37.25 C15.569375 37.1675 12.82625 37.085 10 37 C10 43.93 10 50.86 10 58 C6.7 58 3.4 58 0 58 C0 38.86 0 19.72 0 0 Z " fill="#27512D" transform="translate(741,1449)"/>
<path d="M0 0 C3.3 0 6.6 0 10 0 C17.3113429 14.04207915 23.66336406 28.4976918 30 43 C30.5554248 44.27037109 30.5554248 44.27037109 31.12207031 45.56640625 C36 56.75208749 36 56.75208749 36 58 C32.7 58 29.4 58 26 58 C24.02 53.71 22.04 49.42 20 45 C9.77 44.67 -0.46 44.34 -11 44 C-11.99 46.97 -12.98 49.94 -14 53 C-14.64896236 54.67363977 -15.30580437 56.34461042 -16 58 C-19.3 58 -22.6 58 -26 58 C-20.41932512 44.65288591 -14.52456756 31.46382514 -8.5 18.3125 C-8.13753174 17.5211264 -7.77506348 16.72975281 -7.40161133 15.91439819 C-1.29437646 2.58875291 -1.29437646 2.58875291 0 0 Z " fill="#204B26" transform="translate(492,1449)"/>
<path d="M0 0 C3.45798193 1.78476487 6.73474069 3.79210325 9.9375 6 C9.16913306 10.20393865 7.38917403 11.52187506 3.9375 14 C3.07125 13.38125 2.205 12.7625 1.3125 12.125 C-6.41958581 7.25664967 -14.14057191 7.24292984 -23.0625 8 C-29.3126271 9.60333522 -33.52231532 13.72034741 -37.0625 19 C-38.8131054 24.25181621 -39.1197037 30.06057849 -37.2265625 35.32421875 C-33.78315254 41.39062891 -28.5968654 44.8218782 -22.0625 47 C-13.35648269 47.62702618 -4.71747796 47.70011069 2.375 42.0625 C4.19472583 39.79160882 4.19472583 39.79160882 5.9375 36 C-0.9925 36 -7.9225 36 -15.0625 36 C-15.0625 33.03 -15.0625 30.06 -15.0625 27 C-4.8325 27 5.3975 27 15.9375 27 C15.9375 36.23528279 14.89091159 42.64030448 8.62109375 49.65234375 C-0.47416801 56.93277369 -11.88731251 57.88962779 -23.0625 57 C-33.66237207 54.2686578 -41.21293549 48.15930322 -46.9375 39 C-49.75690309 31.47593031 -49.35205567 21.75702652 -46.0625 14.5 C-36.93252486 -0.98238039 -16.45790727 -6.68602483 0 0 Z " fill="#224D28" transform="translate(648.0625,1451)"/>
<path d="M0 0 C14.52 0 29.04 0 44 0 C44 2.97 44 5.94 44 9 C32.45 9 20.9 9 9 9 C9 13.95 9 18.9 9 24 C18.9 24 28.8 24 39 24 C39 26.97 39 29.94 39 33 C29.1 33 19.2 33 9 33 C9 38.28 9 43.56 9 49 C20.55 49 32.1 49 44 49 C44 51.97 44 54.94 44 58 C29.48 58 14.96 58 0 58 C0 38.86 0 19.72 0 0 Z " fill="#244F2A" transform="translate(1365,1449)"/>
<path d="M0 0 C0.80002441 0.00161133 1.60004883 0.00322266 2.42431641 0.00488281 C10.0453151 0.16252667 15.84305199 1.7930852 22 6.375 C23.3125 8.375 23.3125 8.375 23.375 10.375 C21.9035522 13.1447841 19.83240799 14.56583529 17.3125 16.375 C16.84199219 15.95347656 16.37148437 15.53195312 15.88671875 15.09765625 C15.26410156 14.54980469 14.64148437 14.00195312 14 13.4375 C13.38511719 12.89222656 12.77023437 12.34695313 12.13671875 11.78515625 C8.38569477 8.88554243 4.51392632 9.14791464 -0.0625 9.0625 C-1.36960937 9.02511719 -2.67671875 8.98773437 -4.0234375 8.94921875 C-8.20155693 9.43473583 -9.79685306 10.38033356 -12.6875 13.375 C-13.52083333 15.875 -13.52083333 15.875 -12.6875 18.375 C-7.57685571 23.79538031 -1.26341229 24.30947303 5.75 25.25 C13.03797782 26.33775788 17.77733293 28.15672881 23.3125 33 C26.02369435 37.57514047 26.21082426 41.17997387 25.3125 46.375 C22.37234919 52.60811972 17.43992341 56.03467568 11.25 58.6875 C1.20841354 60.44079287 -8.58139418 60.33546895 -17.6875 55.375 C-20.57122261 53.23398496 -23.17443904 50.9384662 -25.6875 48.375 C-23.9375 45.375 -23.9375 45.375 -21.6875 42.375 C-17.34677281 42.375 -16.8896741 42.65122025 -13.75 45.25 C-7.54637958 50.07630286 -2.53207734 51.30198107 5.3125 50.375 C8.65345226 49.49606488 11.52125521 48.43535451 14.3125 46.375 C15.79493075 43.40689266 15.79493075 43.40689266 15.3125 40.375 C13.01016781 37.26187973 10.56403482 36.69805159 6.875 35.875 C5.27591797 35.49988281 5.27591797 35.49988281 3.64453125 35.1171875 C1.47720176 34.63442947 -0.69200837 34.16001297 -2.86328125 33.6953125 C-10.4770407 31.9732678 -17.0685726 30.13970814 -21.6875 23.5 C-23.11563406 19.03708106 -23.12616945 15.37338306 -22.125 10.8125 C-17.08701502 2.26982981 -9.36122109 -0.01941759 0 0 Z " fill="#224C27" transform="translate(1260.6875,1448.625)"/>
<path d="M0 0 C11.55 0 23.1 0 35 0 C35 2.97 35 5.94 35 9 C30.71 9 26.42 9 22 9 C22 22.2 22 35.4 22 49 C26.29 49 30.58 49 35 49 C35 51.97 35 54.94 35 58 C23.45 58 11.9 58 0 58 C0 55.03 0 52.06 0 49 C4.29 49 8.58 49 13 49 C13 35.8 13 22.6 13 9 C8.71 9 4.42 9 0 9 C0 6.03 0 3.06 0 0 Z " fill="#224D28" transform="translate(873,1449)"/>
<path d="M0 0 C11.55 0 23.1 0 35 0 C35 2.97 35 5.94 35 9 C30.71 9 26.42 9 22 9 C22 22.2 22 35.4 22 49 C26.29 49 30.58 49 35 49 C35 51.97 35 54.94 35 58 C23.45 58 11.9 58 0 58 C0 55.36 0 52.72 0 50 C4.29 50 8.58 50 13 50 C13 36.47 13 22.94 13 9 C8.71 9 4.42 9 0 9 C0 6.03 0 3.06 0 0 Z " fill="#254F2A" transform="translate(1122,1449)"/>
<path d="M0 0 C3.54213083 -0.08118636 7.08238743 -0.14059277 10.625 -0.1875 C11.62402344 -0.21263672 12.62304688 -0.23777344 13.65234375 -0.26367188 C19.16749448 -0.31845814 23.30403164 -0.2598227 28 3 C30.33909307 6.5086396 30.41291057 7.87089433 30 12 C28.6477437 15.13154091 27.79637639 16.60619967 24.71801758 18.12841797 C21.86732503 19.04254465 19.68285473 19.23020883 16.69921875 19.1953125 C15.72275391 19.18886719 14.74628906 19.18242188 13.74023438 19.17578125 C12.73283203 19.15902344 11.72542969 19.14226562 10.6875 19.125 C9.66076172 19.11597656 8.63402344 19.10695313 7.57617188 19.09765625 C5.05068073 19.07416331 2.52531008 19.03829451 0 19 C0 12.73 0 6.46 0 0 Z " fill="#FDFDFD" transform="translate(1000,1458)"/>
<path d="M0 0 C3.54213083 -0.08118636 7.08238743 -0.14059277 10.625 -0.1875 C11.62402344 -0.21263672 12.62304688 -0.23777344 13.65234375 -0.26367188 C19.16749448 -0.31845814 23.30403164 -0.2598227 28 3 C30.33909307 6.5086396 30.41291057 7.87089433 30 12 C28.6477437 15.13154091 27.79637639 16.60619967 24.71801758 18.12841797 C21.86732503 19.04254465 19.68285473 19.23020883 16.69921875 19.1953125 C15.72275391 19.18886719 14.74628906 19.18242188 13.74023438 19.17578125 C12.73283203 19.15902344 11.72542969 19.14226562 10.6875 19.125 C9.66076172 19.11597656 8.63402344 19.10695313 7.57617188 19.09765625 C5.05068073 19.07416331 2.52531008 19.03829451 0 19 C0 12.73 0 6.46 0 0 Z " fill="#FDFDFD" transform="translate(751,1458)"/>
<path d="M0 0 C3.30733992 2.20489328 3.76507337 3.1708495 5.26171875 6.71875 C5.85629883 8.11673828 5.85629883 8.11673828 6.46289062 9.54296875 C6.86701172 10.51878906 7.27113281 11.49460937 7.6875 12.5 C8.10322266 13.47582031 8.51894531 14.45164062 8.94726562 15.45703125 C12 22.70539563 12 22.70539563 12 25 C4.74 25 -2.52 25 -10 25 C-9.23055477 21.15277385 -8.51694134 18.59332263 -6.93359375 15.13671875 C-6.53076172 14.25048828 -6.12792969 13.36425781 -5.71289062 12.45117188 C-5.29201172 11.53916016 -4.87113281 10.62714844 -4.4375 9.6875 C-4.01275391 8.75615234 -3.58800781 7.82480469 -3.15039062 6.86523438 C-2.10493657 4.5746328 -1.05468244 2.28636341 0 0 Z " fill="#F1F4F1" transform="translate(496,1460)"/>
<path d="M0 0 C2.8125 0.625 2.8125 0.625 4.8125 2.625 C4.5890878 8.32201107 3.14761001 12.11809458 -0.1875 16.625 C-3.25 17.75 -3.25 17.75 -6.1875 17.625 C-8.125 16.5625 -8.125 16.5625 -9.1875 14.625 C-9.1875 8.61457747 -6.24978404 1.22544785 0 0 Z " fill="#214B26" transform="translate(1213.1875,670.375)"/>
<path d="M0 0 C1 1 1 1 1.3125 3.875 C1 7 1 7 -0.66015625 8.65234375 C-3.47137141 10.27149105 -5.52538595 10.49555869 -8.75 10.6875 C-9.73484375 10.75324219 -10.7196875 10.81898438 -11.734375 10.88671875 C-12.48203125 10.92410156 -13.2296875 10.96148438 -14 11 C-16 8 -16 8 -15.625 4.8125 C-15.41875 3.884375 -15.2125 2.95625 -15 2 C-13.00458132 1.31974363 -11.00382009 0.65509503 -9 0 C-8.319375 -0.226875 -7.63875 -0.45375 -6.9375 -0.6875 C-4.41297517 -1.09468142 -2.45282154 -0.66292474 0 0 Z " fill="#224C28" transform="translate(1186,653)"/>
<path d="M0 0 C3.75 0.5625 3.75 0.5625 5.32421875 2.13671875 C8.01177507 6.17960433 9.69344271 9.60942578 8.75 14.5625 C5.75 16.5625 5.75 16.5625 3.375 16.625 C-0.56385482 15.03070162 -2.44977058 12.35717445 -4.25 8.5625 C-4.625 4.6875 -4.625 4.6875 -4.25 1.5625 C-3.25 0.5625 -3.25 0.5625 0 0 Z " fill="#204B26" transform="translate(1243.25,692.4375)"/>
<path d="M0 0 C1.010625 0.309375 2.02125 0.61875 3.0625 0.9375 C4.0625 3.4375 4.0625 3.4375 4.0625 6.9375 C1.84679267 10.20063261 -0.67936042 12.71551789 -3.9375 14.9375 C-7.375 15 -7.375 15 -9.9375 13.9375 C-10.9375 12.9375 -10.9375 12.9375 -11.4375 10.3125 C-10.79113777 5.94955494 -9.13254101 4.17028306 -5.9609375 1.21875 C-3.9375 -0.0625 -3.9375 -0.0625 0 0 Z " fill="#214C27" transform="translate(1119.9375,676.0625)"/>
<path d="M0 0 C3.375 0 3.375 0 7 1 C9.8071052 4.09501343 10.88002069 6.10872513 11.4375 10.25 C11.293125 11.1575 11.14875 12.065 11 13 C8 15 8 15 5.625 15 C1.77776725 13.53438753 0.24386503 11.39785276 -2 8 C-2.4375 4.75 -2.4375 4.75 -2 2 C-1.34 1.34 -0.68 0.68 0 0 Z " fill="#214C27" transform="translate(1150,672)"/>
<path d="M0 0 C2.1875 0.3125 2.1875 0.3125 4 1 C4.75 3.1875 4.75 3.1875 5 6 C2.8739403 9.38594692 0.84551234 11.75586365 -3 13 C-6.1875 13.1875 -6.1875 13.1875 -9 13 C-10 12 -10 12 -10.1875 9.5625 C-10 7 -10 7 -8 5 C-6.7934375 4.5359375 -6.7934375 4.5359375 -5.5625 4.0625 C-2.96004804 3.19243782 -2.96004804 3.19243782 -1.4375 1.3125 C-0.963125 0.879375 -0.48875 0.44625 0 0 Z " fill="#244F2A" transform="translate(1338,731)"/>
<path d="M0 0 C0.66 0 1.32 0 2 0 C2.66 2.31 3.32 4.62 4 7 C3.01 7 2.02 7 1 7 C0.67 4.69 0.34 2.38 0 0 Z " fill="#DDE3DD" transform="translate(958,495)"/>
</svg>
